<?xml version="1.0" encoding="UTF-8"?>
<svg id="Capa_1" xmlns="http://www.w3.org/2000/svg" version="1.1" xmlns:xlink="http://www.w3.org/1999/xlink" viewBox="0 0 1366 166.61">
  <!-- Generator: Adobe Illustrator 30.4.0, SVG Export Plug-In . SVG Version: 2.1.4 Build 226)  -->
  <defs>
    <style>
      .st0 {
        fill: #5f5f5f;
      }

      .st1 {
        fill: #43c1ed;
      }

      .st2 {
        fill: #fff;
      }

      .st3 {
        fill: none;
      }

      .st4 {
        fill: #ffd900;
      }

      .st5 {
        clip-path: url(#clippath);
      }
    </style>
    <clipPath id="clippath">
      <rect class="st3" y="-27" width="1366" height="220.61"/>
    </clipPath>
  </defs>
  <g class="st5">
    <g>
      <g>
        <polygon class="st2" points="1274.38 31.13 1263.27 20.49 1252.16 31.13 1250.73 29.64 1262.56 18.31 1263.98 18.31 1275.81 29.64 1274.38 31.13"/>
        <polygon class="st2" points="1274.38 46.28 1263.27 35.64 1252.16 46.28 1250.73 44.79 1262.56 33.46 1263.98 33.46 1275.81 44.79 1274.38 46.28"/>
        <polygon class="st2" points="1274.38 61.43 1263.27 50.79 1252.16 61.43 1250.73 59.94 1262.56 48.62 1263.98 48.62 1275.81 59.94 1274.38 61.43"/>
        <polygon class="st2" points="1274.38 76.59 1263.27 65.95 1252.16 76.59 1250.73 75.1 1262.56 63.77 1263.98 63.77 1275.81 75.1 1274.38 76.59"/>
        <polygon class="st2" points="1274.38 91.74 1263.27 81.1 1252.16 91.74 1250.73 90.25 1262.56 78.93 1263.98 78.93 1275.81 90.25 1274.38 91.74"/>
      </g>
      <g>
        <polygon class="st2" points="254.69 118.27 265.8 128.9 276.91 118.27 278.34 119.76 266.51 131.08 265.08 131.08 253.26 119.76 254.69 118.27"/>
        <polygon class="st2" points="254.69 103.11 265.8 113.75 276.91 103.11 278.34 104.61 266.51 115.93 265.08 115.93 253.26 104.61 254.69 103.11"/>
        <polygon class="st2" points="254.69 87.96 265.8 98.6 276.91 87.96 278.34 89.45 266.51 100.77 265.08 100.77 253.26 89.45 254.69 87.96"/>
        <polygon class="st2" points="254.69 72.8 265.8 83.44 276.91 72.8 278.34 74.29 266.51 85.62 265.08 85.62 253.26 74.29 254.69 72.8"/>
        <polygon class="st2" points="254.69 57.65 265.8 68.29 276.91 57.65 278.34 59.14 266.51 70.47 265.08 70.47 253.26 59.14 254.69 57.65"/>
      </g>
      <polygon class="st1" points="372.93 120.17 366.65 113.87 372.93 107.6 366.68 101.34 360.4 107.62 354.12 101.34 347.87 107.6 354.15 113.87 347.87 120.17 354.12 126.42 360.4 120.14 366.68 126.42 372.93 120.17"/>
      <polygon class="st0" points="202.87 67.49 198.68 63.31 202.87 59.13 198.71 54.97 194.53 59.15 190.34 54.97 186.18 59.13 190.36 63.31 186.18 67.49 190.34 71.67 194.53 67.49 198.71 71.67 202.87 67.49"/>
      <path class="st0" d="M934.47,20.26l14.64,14.64c.23.23.23.6,0,.83l-14.28,14.29,14.28,14.28c.23.23.23.6,0,.83l-14.64,14.64c-.23.23-.6.23-.83,0l-14.28-14.28-14.28,14.28c-.23.23-.6.23-.83,0l-14.64-14.64c-.23-.23-.23-.6,0-.83l14.28-14.28-14.28-14.28c-.23-.23-.23-.6,0-.83l14.64-14.64c.23-.23.6-.23.83,0l14.28,14.28,14.28-14.28c.24-.24.6-.24.83,0h0ZM947.87,35.31l-13.8-13.8-14.28,14.28c-.23.23-.6.23-.83,0l-14.28-14.28-13.8,13.8,14.28,14.28c.23.23.23.6,0,.83l-14.28,14.29,13.8,13.8,14.28-14.28c.23-.23.6-.23.83,0l14.28,14.28,13.8-13.8-14.28-14.28c-.23-.23-.23-.6,0-.83,0,0,14.28-14.29,14.28-14.29Z"/>
      <g>
        <g>
          <path class="st2" d="M996.23,113.88c0,.91-.74,1.66-1.66,1.66s-1.66-.74-1.66-1.66.74-1.66,1.66-1.66,1.66.74,1.66,1.66Z"/>
          <path class="st2" d="M1015.98,113.88c0,.91-.74,1.66-1.66,1.66s-1.66-.74-1.66-1.66.74-1.66,1.66-1.66,1.66.74,1.66,1.66Z"/>
          <path class="st2" d="M1035.73,113.88c0,.91-.74,1.66-1.66,1.66s-1.66-.74-1.66-1.66.74-1.66,1.66-1.66,1.66.74,1.66,1.66Z"/>
          <path class="st2" d="M1055.49,113.88c0,.91-.74,1.66-1.66,1.66s-1.66-.74-1.66-1.66.74-1.66,1.66-1.66,1.66.74,1.66,1.66Z"/>
          <path class="st2" d="M1075.24,113.88c0,.91-.74,1.66-1.66,1.66s-1.66-.74-1.66-1.66.74-1.66,1.66-1.66,1.66.74,1.66,1.66Z"/>
          <path class="st2" d="M1094.99,113.88c0,.91-.74,1.66-1.66,1.66s-1.66-.74-1.66-1.66.74-1.66,1.66-1.66,1.66.74,1.66,1.66Z"/>
          <path class="st2" d="M1114.74,113.88c0,.91-.74,1.66-1.66,1.66s-1.66-.74-1.66-1.66.74-1.66,1.66-1.66,1.66.74,1.66,1.66Z"/>
        </g>
        <g>
          <path class="st2" d="M996.23,131.39c0,.91-.74,1.66-1.66,1.66s-1.66-.74-1.66-1.66.74-1.66,1.66-1.66,1.66.74,1.66,1.66Z"/>
          <path class="st2" d="M1015.98,131.39c0,.91-.74,1.66-1.66,1.66s-1.66-.74-1.66-1.66.74-1.66,1.66-1.66,1.66.74,1.66,1.66Z"/>
          <path class="st2" d="M1035.73,131.39c0,.91-.74,1.66-1.66,1.66s-1.66-.74-1.66-1.66.74-1.66,1.66-1.66,1.66.74,1.66,1.66Z"/>
          <path class="st2" d="M1055.49,131.39c0,.91-.74,1.66-1.66,1.66s-1.66-.74-1.66-1.66.74-1.66,1.66-1.66,1.66.74,1.66,1.66Z"/>
          <path class="st2" d="M1075.24,131.39c0,.91-.74,1.66-1.66,1.66s-1.66-.74-1.66-1.66.74-1.66,1.66-1.66,1.66.74,1.66,1.66Z"/>
          <path class="st2" d="M1094.99,131.39c0,.91-.74,1.66-1.66,1.66s-1.66-.74-1.66-1.66.74-1.66,1.66-1.66,1.66.74,1.66,1.66Z"/>
          <path class="st2" d="M1114.74,131.39c0,.91-.74,1.66-1.66,1.66s-1.66-.74-1.66-1.66.74-1.66,1.66-1.66,1.66.74,1.66,1.66Z"/>
        </g>
        <g>
          <path class="st2" d="M996.23,148.9c0,.91-.74,1.66-1.66,1.66s-1.66-.74-1.66-1.66.74-1.66,1.66-1.66,1.66.74,1.66,1.66Z"/>
          <path class="st2" d="M1015.98,148.9c0,.91-.74,1.66-1.66,1.66s-1.66-.74-1.66-1.66.74-1.66,1.66-1.66,1.66.74,1.66,1.66Z"/>
          <path class="st2" d="M1035.73,148.9c0,.91-.74,1.66-1.66,1.66s-1.66-.74-1.66-1.66.74-1.66,1.66-1.66,1.66.74,1.66,1.66Z"/>
          <path class="st2" d="M1055.49,148.9c0,.91-.74,1.66-1.66,1.66s-1.66-.74-1.66-1.66.74-1.66,1.66-1.66,1.66.74,1.66,1.66Z"/>
          <path class="st2" d="M1075.24,148.9c0,.91-.74,1.66-1.66,1.66s-1.66-.74-1.66-1.66.74-1.66,1.66-1.66,1.66.74,1.66,1.66Z"/>
          <path class="st2" d="M1094.99,148.9c0,.91-.74,1.66-1.66,1.66s-1.66-.74-1.66-1.66.74-1.66,1.66-1.66,1.66.74,1.66,1.66Z"/>
          <path class="st2" d="M1114.74,148.9c0,.91-.74,1.66-1.66,1.66s-1.66-.74-1.66-1.66.74-1.66,1.66-1.66,1.66.74,1.66,1.66Z"/>
        </g>
        <g>
          <path class="st2" d="M996.23,166.41c0,.91-.74,1.66-1.66,1.66s-1.66-.74-1.66-1.66.74-1.66,1.66-1.66,1.66.74,1.66,1.66Z"/>
          <path class="st2" d="M1015.98,166.41c0,.91-.74,1.66-1.66,1.66s-1.66-.74-1.66-1.66.74-1.66,1.66-1.66,1.66.74,1.66,1.66Z"/>
          <path class="st2" d="M1035.73,166.41c0,.91-.74,1.66-1.66,1.66s-1.66-.74-1.66-1.66.74-1.66,1.66-1.66,1.66.74,1.66,1.66Z"/>
          <path class="st2" d="M1055.49,166.41c0,.91-.74,1.66-1.66,1.66s-1.66-.74-1.66-1.66.74-1.66,1.66-1.66,1.66.74,1.66,1.66Z"/>
          <path class="st2" d="M1075.24,166.41c0,.91-.74,1.66-1.66,1.66s-1.66-.74-1.66-1.66.74-1.66,1.66-1.66,1.66.74,1.66,1.66Z"/>
          <path class="st2" d="M1094.99,166.41c0,.91-.74,1.66-1.66,1.66s-1.66-.74-1.66-1.66.74-1.66,1.66-1.66,1.66.74,1.66,1.66Z"/>
          <path class="st2" d="M1114.74,166.41c0,.91-.74,1.66-1.66,1.66s-1.66-.74-1.66-1.66.74-1.66,1.66-1.66,1.66.74,1.66,1.66Z"/>
        </g>
        <g>
          <path class="st2" d="M996.23,183.92c0,.91-.74,1.66-1.66,1.66s-1.66-.74-1.66-1.66.74-1.66,1.66-1.66,1.66.74,1.66,1.66Z"/>
          <path class="st2" d="M1015.98,183.92c0,.91-.74,1.66-1.66,1.66s-1.66-.74-1.66-1.66.74-1.66,1.66-1.66,1.66.74,1.66,1.66Z"/>
          <path class="st2" d="M1035.73,183.92c0,.91-.74,1.66-1.66,1.66s-1.66-.74-1.66-1.66.74-1.66,1.66-1.66,1.66.74,1.66,1.66Z"/>
          <path class="st2" d="M1055.49,183.92c0,.91-.74,1.66-1.66,1.66s-1.66-.74-1.66-1.66.74-1.66,1.66-1.66,1.66.74,1.66,1.66Z"/>
          <path class="st2" d="M1075.24,183.92c0,.91-.74,1.66-1.66,1.66s-1.66-.74-1.66-1.66.74-1.66,1.66-1.66,1.66.74,1.66,1.66Z"/>
          <path class="st2" d="M1094.99,183.92c0,.91-.74,1.66-1.66,1.66s-1.66-.74-1.66-1.66.74-1.66,1.66-1.66,1.66.74,1.66,1.66Z"/>
          <path class="st2" d="M1114.74,183.92c0,.91-.74,1.66-1.66,1.66s-1.66-.74-1.66-1.66.74-1.66,1.66-1.66,1.66.74,1.66,1.66Z"/>
        </g>
      </g>
      <g>
        <polygon class="st1" points="309.81 25.49 294.3 -9.5 307.29 -9.5 322.81 25.49 309.81 25.49"/>
        <polygon class="st1" points="281.3 25.49 265.8 -9.5 278.79 -9.5 294.3 25.49 281.3 25.49"/>
        <polygon class="st1" points="252.8 25.49 237.28 -9.5 250.28 -9.5 265.8 25.49 252.8 25.49"/>
        <polygon class="st1" points="224.29 25.49 208.78 -9.5 221.78 -9.5 237.28 25.49 224.29 25.49"/>
        <polygon class="st1" points="195.79 25.49 180.27 -9.5 193.27 -9.5 208.78 25.49 195.79 25.49"/>
        <polygon class="st1" points="167.28 25.49 151.77 -9.5 164.76 -9.5 180.27 25.49 167.28 25.49"/>
        <polygon class="st1" points="138.77 25.49 123.26 -9.5 136.26 -9.5 151.77 25.49 138.77 25.49"/>
        <polygon class="st1" points="110.26 25.49 94.75 -9.5 107.75 -9.5 123.26 25.49 110.26 25.49"/>
      </g>
      <g>
        <polygon class="st1" points="1335.75 175.81 1324.62 150.71 1333.94 150.71 1345.08 175.81 1335.75 175.81"/>
        <polygon class="st1" points="1315.3 175.81 1304.17 150.71 1313.49 150.71 1324.62 175.81 1315.3 175.81"/>
        <polygon class="st1" points="1294.85 175.81 1283.72 150.71 1293.04 150.71 1304.17 175.81 1294.85 175.81"/>
        <polygon class="st1" points="1274.39 175.81 1263.27 150.71 1272.59 150.71 1283.72 175.81 1274.39 175.81"/>
        <polygon class="st1" points="1253.94 175.81 1242.82 150.71 1252.14 150.71 1263.27 175.81 1253.94 175.81"/>
        <polygon class="st1" points="1233.49 175.81 1222.37 150.71 1231.69 150.71 1242.82 175.81 1233.49 175.81"/>
        <polygon class="st1" points="1213.04 175.81 1201.91 150.71 1211.24 150.71 1222.37 175.81 1213.04 175.81"/>
        <polygon class="st1" points="1192.59 175.81 1181.46 150.71 1190.78 150.71 1201.91 175.81 1192.59 175.81"/>
      </g>
      <path class="st0" d="M400.63,54.59l-31.54-31.53c-.5-.5-.5-1.3,0-1.79l30.77-30.77-30.77-30.77c-.5-.5-.5-1.3,0-1.79l31.54-31.53c.5-.5,1.3-.5,1.79,0l30.77,30.77,30.77-30.77c.5-.5,1.3-.5,1.79,0l31.54,31.53c.5.5.5,1.3,0,1.79l-30.77,30.77,30.77,30.77c.5.5.5,1.3,0,1.79l-31.54,31.53c-.5.5-1.3.5-1.79,0l-30.76-30.77-30.77,30.77c-.49.5-1.29.5-1.79,0h0ZM371.78,22.15l29.75,29.75,30.77-30.77c.5-.5,1.3-.5,1.79,0l30.77,30.77,29.74-29.74-30.77-30.77c-.5-.5-.5-1.3,0-1.79l30.77-30.77-29.75-29.75-30.77,30.77c-.5.5-1.3.5-1.79,0l-30.77-30.77-29.74,29.74,30.77,30.77c.5.5.5,1.3,0,1.79,0,0-30.77,30.77-30.77,30.77Z"/>
      <g>
        <path class="st1" d="M189.89,270.86h-1.52v-103.98c0-46.64-37.95-84.59-84.59-84.59S19.18,120.23,19.18,166.88v103.98h-1.52v-103.98c0-47.49,38.63-86.12,86.11-86.12s86.12,38.63,86.12,86.12v103.98h0Z"/>
        <path class="st1" d="M183.37,270.86h-1.52v-99.17c0-10.02-2.29-23.18-5.45-31.29-12.02-30.91-40.52-50.87-72.62-50.87s-60.59,19.97-72.61,50.87c-3.16,8.11-5.45,21.27-5.45,31.28v99.18h-1.52v-99.18c0-10.18,2.34-23.57,5.55-31.84,12.25-31.48,41.31-51.83,74.03-51.83s61.78,20.34,74.03,51.84c3.22,8.27,5.55,21.66,5.55,31.84v99.17h0Z"/>
        <path class="st1" d="M176.84,270.86h-1.52v-94.36c0-7.97-2.01-23.33-4.35-29.92-10.79-30.26-37.16-49.82-67.18-49.82s-56.38,19.55-67.17,49.81c-2.35,6.59-4.35,21.94-4.35,29.89v94.39h-1.52v-94.39c0-8.12,1.99-23.49,4.45-30.4,11.01-30.87,37.94-50.81,68.61-50.81s57.6,19.95,68.61,50.82c2.46,6.91,4.45,22.3,4.45,30.43v94.36h0Z"/>
        <path class="st1" d="M170.31,270.86h-1.52v-89.55c0-5.78-1.64-23.49-3.26-28.54-9.53-29.62-33.75-48.76-61.74-48.76s-52.21,19.14-61.74,48.75c-1.69,5.25-3.27,22.77-3.27,28.5v89.6h-1.52v-89.59c0-5.8,1.61-23.6,3.34-28.96,9.73-30.25,34.53-49.81,63.19-49.81s53.46,19.56,63.19,49.81c1.73,5.36,3.34,23.18,3.34,29.01v89.55h0Z"/>
        <path class="st1" d="M163.78,270.86h-1.52v-84.74c0-3.81-1.18-23.7-2.17-27.17-8.22-28.97-30.33-47.7-56.3-47.7s-48.07,18.72-56.3,47.69c-.99,3.47-2.17,23.3-2.17,27.11v84.81h-1.52v-84.8c0-3.94,1.19-23.87,2.22-27.53,8.42-29.64,31.09-48.79,57.77-48.79s49.35,19.15,57.77,48.8c1.04,3.66,2.22,23.63,2.22,27.58v84.74h.02Z"/>
        <path class="st1" d="M157.25,270.86h-1.52v-79.93c0-2.1-.67-24.15-1.08-25.79-5.5-22.54-21.75-46.64-50.87-46.64s-48.71,22.72-50.87,46.63c-.15,1.68-1.08,23.62-1.08,25.72v80.01h-1.52v-80.01c0-1.19.93-24.07,1.12-26.08,2.4-24.7,22.34-47.79,52.34-47.79s46.71,24.69,52.34,47.79c.48,1.97,1.12,24.96,1.12,26.15v79.94h.02Z"/>
        <path class="st1" d="M150.72,270.86h-1.52v-99.7c0-25.05-20.37-45.42-45.42-45.42s-45.42,20.37-45.42,45.42v99.7h-1.52v-99.7c0-25.88,21.05-46.93,46.93-46.93s46.93,21.05,46.93,46.93v99.7h.02Z"/>
      </g>
      <g>
        <path class="st1" d="M1016.41-144.16h1.74V-25.44c0,53.26,43.33,96.59,96.59,96.59s96.59-43.33,96.59-96.59v-118.73h1.74V-25.44c0,54.22-44.11,98.33-98.32,98.33s-98.33-44.11-98.33-98.33v-118.72h-.01Z"/>
        <path class="st1" d="M1023.87-144.16h1.74V-30.93c0,11.44,2.62,26.47,6.22,35.73,13.72,35.29,46.27,58.09,82.92,58.09s69.18-22.8,82.91-58.08c3.61-9.26,6.22-24.29,6.22-35.72v-113.25h1.74V-30.91c0,11.62-2.67,26.91-6.34,36.35-13.99,35.95-47.17,59.18-84.53,59.18s-70.54-23.23-84.53-59.19c-3.68-9.44-6.34-24.73-6.34-36.36v-113.24h-.01,0Z"/>
        <path class="st1" d="M1031.32-144.16h1.74V-36.42c0,9.1,2.29,26.64,4.97,34.16,12.32,34.55,42.43,56.88,76.71,56.88s64.38-22.32,76.7-56.87c2.68-7.52,4.97-25.05,4.97-34.13v-107.78h1.74V-36.38c0,9.27-2.27,26.82-5.08,34.71-12.57,35.25-43.32,58.02-78.34,58.02s-65.77-22.78-78.34-58.03c-2.81-7.89-5.08-25.46-5.08-34.74v-107.74h.01Z"/>
        <path class="st1" d="M1038.78-144.16h1.74V-41.91c0,6.6,1.87,26.82,3.72,32.59,10.88,33.82,38.54,55.67,70.5,55.67s59.62-21.85,70.5-55.66c1.93-5.99,3.73-26,3.73-32.54v-102.3h1.74V-41.86c0,6.62-1.84,26.95-3.81,33.07-11.11,34.54-39.43,56.87-72.15,56.87s-61.04-22.33-72.15-56.87c-1.97-6.12-3.81-26.47-3.81-33.12v-102.25h0Z"/>
        <path class="st1" d="M1046.23-144.16h1.74V-47.4c0,4.35,1.35,27.06,2.48,31.02,9.39,33.08,34.63,54.46,64.29,54.46s54.89-21.37,64.29-54.45c1.13-3.96,2.48-26.61,2.48-30.95v-96.83h1.74V-47.33c0,4.5-1.36,27.24-2.54,31.43-9.61,33.84-35.5,55.71-65.96,55.71s-56.35-21.87-65.96-55.72c-1.19-4.18-2.54-26.98-2.54-31.49v-96.76h-.02Z"/>
        <path class="st1" d="M1053.69-144.16h1.74V-52.89c0,2.4.77,27.58,1.23,29.45,6.28,25.74,24.83,53.25,58.08,53.25s51.8-27.5,58.08-53.24c.46-1.88,1.23-26.97,1.23-29.37v-91.36h1.74V-52.8c0,1.36-.73,27.53-1.28,29.78-6.43,26.38-25.51,54.57-59.76,54.57s-53.34-28.19-59.76-54.57c-.55-2.25-1.28-28.5-1.28-29.86v-91.28h-.02,0Z"/>
        <path class="st1" d="M1061.14-144.16h1.74V-30.32c0,28.6,23.26,51.86,51.86,51.86s51.86-23.26,51.86-51.86v-113.84h1.74V-30.32c0,29.55-24.04,53.59-53.59,53.59s-53.59-24.04-53.59-53.59v-113.84h-.02Z"/>
      </g>
    </g>
  </g>
  <g>
    <g>
      <path class="st2" d="M617.47,129.48h-20.44v-13.41h-30.7v13.41h-20.44v-49.1h25.75v2.67c0,5.53,4.5,10.04,10.04,10.04s10.04-4.5,10.04-10.04v-2.67h25.75v49.1h0ZM602.37,124.14h9.75v-38.42h-15.3c-1.27,7.21-7.59,12.71-15.15,12.71s-13.88-5.5-15.15-12.71h-15.29v38.42h9.75v-13.41h41.39v13.41Z"/>
      <path class="st2" d="M617.46,85.72h-25.75v-2.67c0-5.53-4.5-10.04-10.04-10.04s-10.04,4.5-10.04,10.04v2.67h-25.75v-49.1h20.44v13.41h30.7v-13.41h20.43v49.1h0ZM596.82,80.37h15.29v-38.42h-9.75v13.41h-41.39v-13.41h-9.75v38.42h15.29c1.27-7.21,7.58-12.71,15.15-12.71s13.88,5.5,15.15,12.71h.01Z"/>
      <path class="st2" d="M602.37,55.37h-41.39v-18.75h41.39v18.75ZM566.33,50.02h30.7v-8.07h-30.7v8.07Z"/>
      <path class="st2" d="M602.37,129.48h-41.39v-18.75h41.39v18.75ZM566.33,124.14h30.7v-8.07h-30.7v8.07h0Z"/>
      <g>
        <g>
          <path class="st4" d="M581.67,95.76c7.02,0,12.71-5.69,12.71-12.71h-25.42c0,7.01,5.69,12.71,12.71,12.71h0Z"/>
          <path class="st2" d="M581.67,98.43c-8.48,0-15.38-6.9-15.39-15.38v-2.67h30.77v2.67c0,8.48-6.9,15.38-15.38,15.38h0ZM571.99,85.72c1.18,4.24,5.07,7.37,9.68,7.37s8.5-3.13,9.67-7.37h-19.35Z"/>
        </g>
        <g>
          <path class="st4" d="M581.67,70.33c-7.02,0-12.71,5.69-12.71,12.71h25.42c0-7.02-5.69-12.71-12.71-12.71h0Z"/>
          <path class="st2" d="M597.06,85.72h-30.77v-2.67c0-8.48,6.9-15.38,15.38-15.38s15.38,6.9,15.39,15.38v2.67h0ZM572,80.37h19.35c-1.18-4.24-5.07-7.37-9.68-7.37s-8.5,3.13-9.67,7.37Z"/>
        </g>
      </g>
    </g>
    <path class="st1" d="M635.32,47.52c-.14,3.33-.21,6.76-.21,10.29v5.27h-1.29l-.44-.02-6.28.05c-.4,0-.61,0-.64.02,0,0,.02-.11.07-.3v-.11l.02-.07c-.06-.85-.09-1.88-.09-3.09l.07-19.74-.02-.92v-.88l-.04-1.66c0-.12.06-.24.19-.37h2.42l1.42-.02c3.32,0,5.7.05,7.13.14,1.43.1,2.46.14,3.08.14.34,2.02.85,4.71,1.52,8.06l1.26,6.33h.62l2.27-11.56c.04-.18.12-.69.25-1.55s.23-1.33.3-1.42h.07l11.51-.11.69.02h1.98c.11.05.17.27.18.65l.18,6.68c.14,5.54.24,9.85.3,12.94,0,2.38-.04,4.62-.11,6.7-.04.14-.27.22-.71.25l-.8.04c-.64.02-1.11.04-1.42.04h-.92c-1.14,0-2.83.02-5.05.02-.41-.36-.62-1.94-.62-4.74l.04-5.55v-1.43c0-1.26,0-2.19-.02-2.79l-.67-.12c-.39,1.43-1.14,4.6-2.24,9.53l-.16.71c-.08.36-.22,1.02-.42,1.96-.19.93-.35,1.65-.47,2.13-.14.17-.76.25-1.88.25h-.23l-1.98-.05-1.08.02h-.83l-1.39.02h-.5c-.54,0-.84-.12-.9-.37l.02.02-1.61-7.02c-.05-.18-.15-.56-.32-1.16-.17-.59-.26-1.1-.28-1.5l-1.32-5.73-.63.04h0s-.02-.04-.02-.04ZM690.25,49.02l-.05,4.97c0,1.52-.25,2.86-.73,4.03-.49,1.16-1.13,2.11-1.93,2.83-2.18,1.98-5.41,2.97-9.67,2.97s-7.59-1.04-9.95-3.11c-.84-.72-1.54-1.65-2.11-2.8s-.92-2.45-1.03-3.9c.06-4.93.09-9.48.09-13.67-.06,0-.09-.62-.09-1.85s.05-2,.16-2.3h.37c1.73-.1,4.1-.14,7.09-.14.21.05.6.07,1.16.09.56,0,.95.03,1.16.05l.55.07c.08,2.33.13,5.55.16,9.63l-.11,7.11c0,2.36.68,3.54,2.05,3.54.58,0,1.06-.25,1.46-.76s.6-1.08.63-1.71l.07-.18.05-5.96.02-.53c0-2.74-.04-5.37-.11-7.92l-.04-1.29c-.02-.52-.04-.98-.04-1.39s.06-.69.19-.85c4.55,0,7.98.02,10.29.05.08.08.19.16.32.23h-.02l.19.12c-.1,2.23-.14,5.09-.14,8.59v4.08s.01,0,.01,0ZM720.24,50.35l-.02,1.19v6.54l.04,3.11v.88l.02.83c-.07.1-.36.14-.87.14h-.46l-5.55.07c-2.36,0-4.11,0-5.27-.02-.18-.19-.82-1.9-1.93-5.14l-3.38-8.96-.64.09-.02,1.81v4.79l.07,4.79v1.98c0,.53-.12.81-.35.83-1.16-.04-2.28-.05-3.34-.05h-.55l-2.67.07h-.35l-1.27.04-.05-.04c-.39-.36-.58-.63-.58-.8v-.32l.02-.35.09-6.89c0-7.56.07-13.29.21-17.16l.04-1.47c0-.11,4.06-.2,12.18-.28.07.05.18.3.32.78v-.05l.11.35c.87,2.5,1.93,5.36,3.18,8.6s1.89,4.89,1.91,4.96l.6-.04.07-14.41c0-.1.86-.14,2.58-.14l4.44.09h1.31c.07,3.9.11,8.63.11,14.19h0ZM731.09,36l3.31-.05c5.76,0,9.81.96,12.14,2.86.5.36,1.04.98,1.62,1.84,1.71,2.48,2.56,5.23,2.56,8.24,0,5.36-1.84,9.33-5.53,11.9-2.21,1.54-4.74,2.33-7.6,2.35l-.07.07h-.44l-4.7-.05c-2.13,0-4.8.05-8.01.16-.22-.42-.34-.92-.34-1.5l.02-.64v-2.76l.04-3.93v-6.47c-.02-1.49-.04-2.59-.04-3.32v-2.9l.02-.41v-5.05c0-.1.64-.18,1.93-.24,1.28-.06,2.31-.1,3.08-.1h2.02-.01ZM738.59,42.11c-.67-.48-1.42-.75-2.23-.81-.28,0-.67-.02-1.16-.04-.49,0-.84-.02-1.07-.04-.21.32-.35.56-.42.71l-.32.65v.99c0,2.04.05,4.8.14,8.29l.11,5.11c.07.36.3.58.71.65,1.21-.02,2.15-.11,2.81-.25,2.32-.82,3.48-3.65,3.48-8.47,0-3.56-.68-5.83-2.05-6.8h0ZM752.96,60.83c0-2.39.06-4.05.19-4.98,0-5.13.07-10.29.21-15.5-.04-.74-.05-1.49-.05-2.24v-.58c-.05-.36-.07-.69-.07-.97s.03-.46.09-.55c2.52.15,4.73.23,6.63.23s3.2-.04,3.91-.11c.02.04.04.13.05.3h-.12v6.4l.12,14.39c0,.11.02.19.05.27v.04c.04.07.05.15.05.23l.14,5.14c-.06.13-.17.23-.32.3h-.6l-9.9.16c-.12-.06-.27-.15-.46-.27l.02-.3.05-1.94h0v-.02s.01,0,.01,0ZM796.02,62.92c-.01.15-.34.23-.97.23h-1.62l-1.1.02h-1.08l-1.71.02c-1.71,0-3.13-.04-4.26-.12-.04,0-.07-.08-.12-.21l-.09-.37c-.11-1.21-.38-2.39-.83-3.52l-7.56.07c-.05.2-.2.8-.46,1.78-.26.99-.45,1.74-.58,2.24-.12.12-.68.18-1.68.18l-.44-.02h-1.03l-4.59.11h-.53l-.5.02h-1.24c-.08-.08-.17-.19-.27-.32,1.18-4.08,2.78-9.14,4.79-15.17l.41-1.26h-.02l.48-1.47c.15-.47.59-1.78,1.31-3.93.73-2.14,1.18-3.53,1.36-4.16s.29-.95.33-.97h2.93l6.28-.09,1.7.09,1.39-.09c.71,0,1.06.14,1.06.42,1.18,3.29,2.75,8.02,4.72,14.19,1.97,6.18,3.08,9.65,3.32,10.41l.25.88c.08.34.2.68.35,1.03h0ZM778.52,53.27l.73.02,4.23-.02c-.18-1.4-.31-2.43-.41-3.09l-.67-3.02c-.71-3.13-1.07-4.71-1.1-4.77s-.04-.12-.06-.17-.03-.09-.04-.11c-.01-.02-.03-.05-.04-.1-.02-.05-.04-.08-.05-.1s-.04-.04-.06-.08c-.08-.14-.25-.27-.51-.37-.32.07-1.27,3.62-2.85,10.64l-.19,1.16h1.04-.02ZM817.44,55.94c-.08.33-.12.68-.12,1.06v.41c0,.63.04,1.07.12,1.34,0,1.78,0,3.15-.02,4.12-.07.3-5.89.46-17.45.46-.53,0-1.41,0-2.63-.04-.19-.35-.28-.93-.28-1.75l.04-1.15v-4.01l.02-3.36v-3.32l.02-5.36c0-.99-.01-1.92-.04-2.79v-.19l-.05-2.55c0-1.5.12-2.47.37-2.92.24,0,.56.02.97.02h.85l2.97-.04c3.38,0,5.25.21,5.59.64l-.14,6.17-.05,5.18-.02.21-.07,7.36.71.41c2.13-.13,4.2-.19,6.2-.19s3,.1,3.02.3h0ZM633.25,69.49l3.31-.05c5.76,0,9.81.96,12.14,2.86.5.36,1.04.98,1.62,1.84,1.71,2.48,2.56,5.23,2.56,8.24,0,5.36-1.84,9.33-5.53,11.9-2.21,1.54-4.74,2.33-7.6,2.35l-.07.07h-.44l-4.7-.05c-2.13,0-4.8.05-8.01.16-.22-.42-.34-.92-.34-1.5l.02-.64v-2.76l.04-3.93v-6.47c-.02-1.49-.04-2.59-.04-3.32v-2.9l.02-.41v-5.05c0-.1.64-.18,1.93-.24,1.28-.06,2.31-.1,3.08-.1h2.02-.01ZM640.74,75.6c-.67-.48-1.42-.75-2.23-.81-.28-.01-.67-.02-1.16-.04-.49-.01-.84-.02-1.07-.04-.21.32-.35.56-.42.71l-.32.65v.99c0,2.04.05,4.8.14,8.29l.11,5.11c.07.36.3.58.71.65,1.21-.02,2.15-.11,2.81-.25,2.32-.82,3.48-3.65,3.48-8.47,0-3.56-.68-5.83-2.05-6.8h0ZM655.11,94.32c0-2.39.06-4.05.19-4.98,0-5.13.07-10.29.21-15.5-.04-.74-.05-1.49-.05-2.24v-.58c-.05-.36-.07-.69-.07-.97s.03-.46.09-.55c2.52.15,4.73.23,6.63.23s3.2-.04,3.91-.11c.02.04.04.13.05.3h-.12v6.4l.12,14.39c0,.11.02.19.05.27v.04c.04.07.05.15.05.23l.14,5.14c-.06.13-.17.23-.32.3h-.6l-9.9.16c-.12-.06-.27-.15-.46-.27l.02-.3.05-1.94h0v-.02s.01,0,.01,0ZM696.69,95.19s0,.04.02.07l-.05.14h.02v.04s0,.04-.02.05c-.56.42-1.91.81-4.05,1.16-2.15.35-3.63.53-4.44.53s-1.26,0-1.35-.02l-.9.05c-.94.06-1.49.09-1.62.09-4.95,0-8.72-1.24-11.3-3.73-2.59-2.48-3.88-6.02-3.88-10.6s1.39-8.05,4.18-10.42c2.79-2.37,6.56-3.55,11.32-3.55.87,0,1.95.08,3.23.25,1.28.17,2.4.41,3.37.73,1.18.48,2.19,1.18,3.03,2.09.84.91,1.39,1.92,1.65,3.03.05.3.1.79.17,1.44.06.65.12,1.13.17,1.44-.07.18-.33.27-.76.27l-8.98-.16s-.11-.18-.18-.48v.05c-.21-.96-.63-1.54-1.26-1.75-.28-.11-.65-.16-1.12-.16s-.89.07-1.3.23-.75.36-1.02.64c-.27.27-.51.59-.73.95s-.37.75-.48,1.16-.2.84-.28,1.27c-.09.44-.13.87-.15,1.29s-.04.83-.05,1.22-.02.71-.01.96.02.42.02.5v1.22c0,.76.04,1.3.11,1.6s.15.63.25.99.2.64.34.82c.46.65.96,1.1,1.5,1.35.53.25,1.37.38,2.51.38s2.22-.17,3.24-.51l.09-2.79-1.27-.11-.18.09h-1.84l-.21.02-.44-.46c-.02-.2-.04-.52-.04-.96v-3.96c0-.2.14-.4.42-.6h1.19c1.03,0,2.17.01,3.45.04h.18c1.15.02,2.03.04,2.63.04h1.06l.41-.02c2.1,0,3.3.13,3.59.41l-.21,13.42v.25s-.03,0-.03,0ZM699.71,94.32c0-2.39.06-4.05.19-4.98,0-5.13.07-10.29.21-15.5-.04-.74-.05-1.49-.05-2.24v-.58c-.05-.36-.07-.69-.07-.97s.03-.46.09-.55c2.52.15,4.73.23,6.63.23s3.2-.04,3.91-.11c.02.04.04.13.05.3h-.12v6.4l.12,14.39c0,.11.02.19.05.27v.04c.04.07.05.15.05.23l.14,5.14c-.06.13-.17.23-.32.3h-.6l-9.9.16c-.12-.06-.27-.15-.46-.27l.02-.3.05-1.94h0v-.02s.01,0,.01,0ZM736.41,76.15c0,.39-.04.58-.12.58l-6.4-.05c-.02,1.14-.04,2.93-.04,5.36s0,4.11.02,5.05l.07,9.37c-.06.17-.18.25-.35.27l-3.73-.05-.02.02-1.16-.02h-3.24c-.87,0-1.53,0-1.96.02l-.3-.27s-.09-.11-.23-.28c0-1.04.04-3.34.12-6.91l.19-9.4-.04-.44c-.08-1.16-.16-1.86-.24-2.08-.07-.22-.22-.34-.45-.35-.22-.02-.39-.03-.5-.03l-.71.04-4.39-.07c-.15-.3-.23-.99-.23-2.07l.04-1.55v-.48c-.01-1.89-.03-2.9-.05-3.02.02,0,.07.01.14.04l22.5-.19c.46,0,.75.03.87.1s.18.19.18.36v4.67l.03,1.41h0v-.03h0ZM764.07,96.4c-.01.15-.34.23-.97.23h-1.62l-1.1.02h-1.08l-1.71.02c-1.71,0-3.13-.04-4.26-.12-.04-.01-.07-.08-.12-.21l-.09-.37c-.11-1.21-.38-2.39-.83-3.52l-7.56.07c-.05.2-.2.8-.46,1.78-.26.99-.45,1.74-.58,2.24-.12.12-.68.18-1.68.18l-.44-.02h-1.03l-4.59.11h-.53l-.5.02h-1.24c-.08-.08-.17-.19-.27-.32,1.18-4.08,2.78-9.14,4.79-15.17l.41-1.26h-.02l.48-1.47c.15-.47.59-1.78,1.31-3.93.73-2.14,1.18-3.53,1.36-4.16.18-.63.29-.95.33-.97h2.93l6.28-.09,1.7.09,1.39-.09c.71,0,1.06.14,1.06.42,1.18,3.29,2.75,8.02,4.72,14.19,1.97,6.18,3.08,9.65,3.32,10.41l.25.88c.09.34.2.68.35,1.03h0ZM746.58,86.76l.73.02,4.23-.02c-.18-1.4-.31-2.43-.41-3.09l-.67-3.02c-.71-3.13-1.07-4.71-1.1-4.77-.02-.06-.04-.12-.06-.17-.02-.05-.03-.09-.04-.11-.01-.02-.03-.05-.04-.1-.02-.05-.04-.08-.05-.1s-.04-.04-.06-.08c-.08-.14-.25-.27-.51-.37-.32.07-1.27,3.62-2.85,10.64l-.19,1.16h1.04-.02ZM785.5,89.42c-.08.33-.12.68-.12,1.06v.41c0,.63.04,1.07.12,1.34,0,1.78,0,3.15-.02,4.12-.07.3-5.89.46-17.45.46-.53,0-1.41-.01-2.63-.04-.19-.35-.28-.93-.28-1.75l.04-1.15v-4.01l.02-3.36v-3.32l.02-5.36c0-.99-.01-1.92-.04-2.79v-.19l-.05-2.55c0-1.5.12-2.47.37-2.92.24.01.56.02.97.02h.85l2.97-.04c3.38,0,5.25.21,5.59.64l-.14,6.17-.05,5.18-.02.21-.07,7.36.71.41c2.13-.13,4.2-.19,6.2-.19s3,.11,3.02.3h0Z"/>
    <g>
      <path class="st2" d="M649.55,125.83l-.09,3.47v.35c0,.29-.13.45-.39.48l-7.28-.16c-5.07,0-10.36.12-15.89.35l-.23-.3c-.2-.14-.3-.67-.3-1.58s.01-1.9.04-2.96v-.12c.02-.97.04-1.7.04-2.21,0-.19.93-.9,2.81-2.14l3.06-2.03c2.12-1.46,3.73-2.69,4.85-3.7,1.93-1.76,2.9-3.33,2.9-4.74,0-.61-.19-1.1-.56-1.46s-.84-.54-1.42-.54-1.02.14-1.34.42c-.31.28-.5.59-.58.93-.22.99-.43,1.54-.62,1.65-.36,0-.91.02-1.65.02h-5.36l-.8-.02h-.69c-.4,0-.63-.05-.69-.16.1-1.43.25-2.47.48-3.15.3-1.12.85-2.09,1.63-2.93.79-.83,1.72-1.47,2.8-1.93,2.11-.87,4.48-1.31,7.11-1.31,4.13,0,7.28.93,9.44,2.79,1.61,1.37,2.42,3.18,2.42,5.43,0,2.85-1.29,5.46-3.87,7.83-1.27,1.16-2.96,2.44-5.05,3.8l-1.24,1.11,8.63-.16c.72,0,1.21.25,1.46.74.26.5.39,1.24.39,2.23h0Z"/>
      <path class="st2" d="M674.12,123.55c-1.32,3.56-3.89,5.81-7.72,6.75-1.18.29-2.47.44-3.86.44s-2.7-.18-3.92-.53c-2.23-.65-3.99-1.81-5.28-3.49-1.29-1.68-2.13-3.65-2.52-5.93-.11-.51-.22-1.53-.34-3.08l-.09-1.16c0-5.54,1.71-9.55,5.13-12.02,1.99-1.44,4.47-2.3,7.44-2.6h.25c4.05,0,7.09,1.27,9.13,3.81s3.05,6.25,3.05,11.11c0,2.25-.42,4.49-1.27,6.69h0ZM665.27,108.89c-.22-.34-.51-.6-.87-.79s-.78-.27-1.27-.27-.92.1-1.3.31-.7.46-.96.77c-.25.3-.47.73-.65,1.26-.47,1.42-.71,3.39-.71,5.92s.06,3.99.19,4.67c.27,1.49.64,2.55,1.11,3.2s1.12.97,1.96.97c1.33,0,2.25-.68,2.78-2.05.44-1.16.65-2.93.65-5.3v-.34c.05-.72.07-1.58.07-2.58s-.01-1.69-.04-2.06-.06-.81-.12-1.31-.16-.94-.31-1.32c-.14-.37-.33-.73-.54-1.07h0Z"/>
      <path class="st2" d="M701.16,125.83l-.09,3.47v.35c0,.29-.13.45-.39.48l-7.28-.16c-5.07,0-10.36.12-15.89.35l-.23-.3c-.2-.14-.3-.67-.3-1.58s.01-1.9.04-2.96v-.12c.03-.97.04-1.7.04-2.21,0-.19.93-.9,2.81-2.14l3.06-2.03c2.12-1.46,3.73-2.69,4.85-3.7,1.93-1.76,2.9-3.33,2.9-4.74,0-.61-.19-1.1-.56-1.46s-.84-.54-1.42-.54-1.02.14-1.34.42c-.31.28-.5.59-.58.93-.22.99-.43,1.54-.62,1.65-.36,0-.91.02-1.65.02h-5.36l-.8-.02h-.69c-.4,0-.63-.05-.69-.16.1-1.43.25-2.47.48-3.15.3-1.12.85-2.09,1.63-2.93.79-.83,1.71-1.47,2.8-1.93,2.11-.87,4.48-1.31,7.11-1.31,4.13,0,7.28.93,9.44,2.79,1.61,1.37,2.42,3.18,2.42,5.43,0,2.85-1.29,5.46-3.87,7.83-1.27,1.16-2.96,2.44-5.05,3.8l-1.24,1.11,8.63-.16c.72,0,1.21.25,1.46.74.26.5.38,1.24.38,2.23h0Z"/>
      <path class="st2" d="M712.21,114.84c1.46-1.73,3.41-2.6,5.86-2.6s4.53.8,6.26,2.39c1.73,1.6,2.59,3.6,2.59,6.02,0,3.13-1.24,5.62-3.73,7.5-1.94,1.46-4.43,2.3-7.46,2.51-2.25-.02-4.11-.27-5.58-.73s-2.51-.97-3.14-1.52v.02c-1.98-1.99-3.31-4.22-4-6.68-.35-1.58-.53-3.33-.53-5.27,0-2.77.53-5.24,1.58-7.4,1.05-2.17,2.57-3.89,4.54-5.16s4.26-1.97,6.86-2.1c4,.1,6.85,1.27,8.56,3.52.9,1.19,1.45,2.59,1.68,4.2-1.04.26-3.89.39-8.57.39-.24,0-.36.02-.37.07l-.04-1.06c-.25-.4-.7-.6-1.36-.6-1.27,0-2.14.6-2.6,1.81-.39,1.02-.58,2.13-.58,3.36v.8c0,.12,0,.31.02.54h.01ZM715.32,116.97c-2.3,0-3.45,1.51-3.45,4.52,0,1.67.57,2.87,1.71,3.59l.21-.27s.1.02.18.02l-.07.35.27.09-.02-.02c.59.19,1.05.28,1.37.28s.7-.09,1.12-.27c1.36-.59,2.03-2.01,2.03-4.26,0-1.28-.25-2.28-.76-2.97s-1.37-1.05-2.6-1.08h0v.02h0Z"/>
    </g>
  </g>
</svg>