<?xml version="1.0" encoding="utf-8"?>
<!-- Generator: Adobe Illustrator 28.1.0, SVG Export Plug-In . SVG Version: 6.00 Build 0)  -->
<svg version="1.1" id="Capa_1" xmlns="http://www.w3.org/2000/svg" xmlns:xlink="http://www.w3.org/1999/xlink" x="0px" y="0px"
	 viewBox="0 0 2557 412.96" style="enable-background:new 0 0 2557 412.96;" xml:space="preserve">
<style type="text/css">
	.st0{fill:#2F2E2B;}
	.st1{clip-path:url(#SVGID_00000096757820511714160370000015285478674195118501_);}
	.st2{fill:#FFFFFF;}
	.st3{fill:#43C1ED;}
	.st4{fill:#5F5F5F;}
	.st5{fill:#FFD900;}
	.st6{enable-background:new    ;}
</style>
<g>
	<rect y="0" class="st0" width="2557" height="412.96"/>
	<g>
		<g>
			<defs>
				<rect id="SVGID_1_" y="0" width="2557" height="412.96"/>
			</defs>
			<clipPath id="SVGID_00000081614629297790523610000002051587050818880652_">
				<use xlink:href="#SVGID_1_"  style="overflow:visible;"/>
			</clipPath>
			<g style="clip-path:url(#SVGID_00000081614629297790523610000002051587050818880652_);">
				<g>
					<g>
						<polygon class="st2" points="2321.68,108.81 2300.89,88.9 2280.09,108.81 2277.41,106.02 2299.55,84.82 2302.22,84.82 
							2324.36,106.02 						"/>
					</g>
					<g>
						<polygon class="st2" points="2321.68,137.18 2300.89,117.26 2280.09,137.18 2277.41,134.38 2299.55,113.18 2302.22,113.18 
							2324.36,134.38 						"/>
					</g>
					<g>
						<polygon class="st2" points="2321.68,165.54 2300.89,145.62 2280.09,165.54 2277.41,162.75 2299.55,141.55 2302.22,141.55 
							2324.36,162.75 						"/>
					</g>
					<g>
						<polygon class="st2" points="2321.68,193.91 2300.89,173.99 2280.09,193.91 2277.41,191.12 2299.55,169.91 2302.22,169.91 
							2324.36,191.12 						"/>
					</g>
					<g>
						<polygon class="st2" points="2321.68,222.27 2300.89,202.36 2280.09,222.27 2277.41,219.48 2299.55,198.28 2302.22,198.28 
							2324.36,219.48 						"/>
					</g>
				</g>
				<g>
					<g>
						<polygon class="st2" points="503.42,271.92 524.22,291.83 545.01,271.92 547.69,274.71 525.55,295.91 522.88,295.91 
							500.74,274.71 						"/>
					</g>
					<g>
						<polygon class="st2" points="503.42,243.55 524.22,263.47 545.01,243.55 547.69,246.35 525.55,267.55 522.88,267.55 
							500.74,246.35 						"/>
					</g>
					<g>
						<polygon class="st2" points="503.42,215.19 524.22,235.11 545.01,215.19 547.69,217.98 525.55,239.18 522.88,239.18 
							500.74,217.98 						"/>
					</g>
					<g>
						<polygon class="st2" points="503.42,186.82 524.22,206.74 545.01,186.82 547.69,189.61 525.55,210.82 522.88,210.82 
							500.74,189.61 						"/>
					</g>
					<g>
						<polygon class="st2" points="503.42,158.46 524.22,178.37 545.01,158.46 547.69,161.25 525.55,182.45 522.88,182.45 
							500.74,161.25 						"/>
					</g>
				</g>
				<polygon class="st3" points="750.59,344.44 738.84,332.68 750.59,320.93 738.89,309.22 727.14,320.98 715.38,309.22 
					703.68,320.93 715.43,332.68 703.68,344.44 715.38,356.14 727.14,344.39 738.89,356.14 				"/>
				<polygon class="st4" points="187.81,152.08 179.98,144.25 187.81,136.42 180.02,128.63 172.19,136.46 164.36,128.63 
					156.56,136.42 164.39,144.25 156.56,152.08 164.36,159.88 172.19,152.05 180.02,159.88 				"/>
				<g>
					<path class="st4" d="M1739.05,41.13l27.4,27.4c0.43,0.43,0.43,1.13,0,1.56l-26.73,26.74l26.73,26.73
						c0.43,0.43,0.43,1.13,0,1.56l-27.4,27.4c-0.43,0.43-1.13,0.43-1.56,0l-26.73-26.73l-26.73,26.73c-0.43,0.43-1.13,0.43-1.56,0
						l-27.4-27.4c-0.43-0.43-0.43-1.13,0-1.56l26.73-26.73l-26.73-26.73c-0.43-0.43-0.43-1.13,0-1.56l27.4-27.4
						c0.43-0.43,1.13-0.43,1.56,0l26.73,26.73l26.73-26.73C1737.93,40.7,1738.62,40.7,1739.05,41.13z M1764.12,69.3l-25.84-25.84
						l-26.73,26.73c-0.43,0.43-1.13,0.43-1.56,0l-26.73-26.73l-25.84,25.84l26.73,26.73c0.43,0.43,0.43,1.13,0,1.56l-26.73,26.74
						l25.84,25.84l26.73-26.73c0.43-0.43,1.13-0.43,1.56,0l26.73,26.73l25.84-25.84l-26.73-26.73c-0.43-0.43-0.43-1.13,0-1.56
						L1764.12,69.3z"/>
				</g>
				<g>
					<g>
						<path class="st2" d="M1769.02,263.72c0,1.71-1.39,3.1-3.1,3.1s-3.1-1.39-3.1-3.1s1.39-3.1,3.1-3.1
							S1769.02,262.01,1769.02,263.72z"/>
						<path class="st2" d="M1806,263.72c0,1.71-1.39,3.1-3.1,3.1s-3.1-1.39-3.1-3.1s1.39-3.1,3.1-3.1S1806,262.01,1806,263.72z"/>
						<path class="st2" d="M1842.97,263.72c0,1.71-1.39,3.1-3.1,3.1s-3.1-1.39-3.1-3.1s1.39-3.1,3.1-3.1
							S1842.97,262.01,1842.97,263.72z"/>
						<path class="st2" d="M1879.95,263.72c0,1.71-1.39,3.1-3.1,3.1s-3.1-1.39-3.1-3.1s1.39-3.1,3.1-3.1
							C1878.56,260.62,1879.95,262.01,1879.95,263.72z"/>
						<path class="st2" d="M1916.92,263.72c0,1.71-1.39,3.1-3.1,3.1s-3.1-1.39-3.1-3.1s1.39-3.1,3.1-3.1
							S1916.92,262.01,1916.92,263.72z"/>
						<path class="st2" d="M1953.9,263.72c0,1.71-1.39,3.1-3.1,3.1s-3.1-1.39-3.1-3.1s1.39-3.1,3.1-3.1S1953.9,262.01,1953.9,263.72
							z"/>
						<path class="st2" d="M1990.87,263.72c0,1.71-1.39,3.1-3.1,3.1s-3.1-1.39-3.1-3.1s1.39-3.1,3.1-3.1
							S1990.87,262.01,1990.87,263.72z"/>
					</g>
					<g>
						<path class="st2" d="M1769.02,296.49c0,1.71-1.39,3.1-3.1,3.1s-3.1-1.39-3.1-3.1s1.39-3.1,3.1-3.1
							C1767.63,293.39,1769.02,294.78,1769.02,296.49z"/>
						<path class="st2" d="M1806,296.49c0,1.71-1.39,3.1-3.1,3.1s-3.1-1.39-3.1-3.1s1.39-3.1,3.1-3.1
							C1804.61,293.39,1806,294.78,1806,296.49z"/>
						<path class="st2" d="M1842.97,296.49c0,1.71-1.39,3.1-3.1,3.1s-3.1-1.39-3.1-3.1s1.39-3.1,3.1-3.1
							C1841.58,293.39,1842.97,294.78,1842.97,296.49z"/>
						<path class="st2" d="M1879.95,296.49c0,1.71-1.39,3.1-3.1,3.1s-3.1-1.39-3.1-3.1s1.39-3.1,3.1-3.1
							C1878.56,293.39,1879.95,294.78,1879.95,296.49z"/>
						<path class="st2" d="M1916.92,296.49c0,1.71-1.39,3.1-3.1,3.1s-3.1-1.39-3.1-3.1s1.39-3.1,3.1-3.1
							C1915.53,293.39,1916.92,294.78,1916.92,296.49z"/>
						<path class="st2" d="M1953.9,296.49c0,1.71-1.39,3.1-3.1,3.1s-3.1-1.39-3.1-3.1s1.39-3.1,3.1-3.1
							C1952.51,293.39,1953.9,294.78,1953.9,296.49z"/>
						<path class="st2" d="M1990.87,296.49c0,1.71-1.39,3.1-3.1,3.1s-3.1-1.39-3.1-3.1s1.39-3.1,3.1-3.1
							C1989.48,293.39,1990.87,294.78,1990.87,296.49z"/>
					</g>
					<g>
						<path class="st2" d="M1769.02,329.27c0,1.71-1.39,3.1-3.1,3.1s-3.1-1.39-3.1-3.1s1.39-3.1,3.1-3.1
							C1767.63,326.16,1769.02,327.55,1769.02,329.27z"/>
						<path class="st2" d="M1806,329.27c0,1.71-1.39,3.1-3.1,3.1s-3.1-1.39-3.1-3.1s1.39-3.1,3.1-3.1
							C1804.61,326.16,1806,327.55,1806,329.27z"/>
						<path class="st2" d="M1842.97,329.27c0,1.71-1.39,3.1-3.1,3.1s-3.1-1.39-3.1-3.1s1.39-3.1,3.1-3.1
							C1841.58,326.16,1842.97,327.55,1842.97,329.27z"/>
						<path class="st2" d="M1879.95,329.27c0,1.71-1.39,3.1-3.1,3.1s-3.1-1.39-3.1-3.1s1.39-3.1,3.1-3.1
							C1878.56,326.16,1879.95,327.55,1879.95,329.27z"/>
						<path class="st2" d="M1916.92,329.27c0,1.71-1.39,3.1-3.1,3.1s-3.1-1.39-3.1-3.1s1.39-3.1,3.1-3.1
							C1915.53,326.16,1916.92,327.55,1916.92,329.27z"/>
						<path class="st2" d="M1953.9,329.27c0,1.71-1.39,3.1-3.1,3.1s-3.1-1.39-3.1-3.1s1.39-3.1,3.1-3.1
							C1952.51,326.16,1953.9,327.55,1953.9,329.27z"/>
						<path class="st2" d="M1990.87,329.27c0,1.71-1.39,3.1-3.1,3.1s-3.1-1.39-3.1-3.1s1.39-3.1,3.1-3.1
							C1989.48,326.16,1990.87,327.55,1990.87,329.27z"/>
					</g>
					<g>
						<path class="st2" d="M1769.02,362.04c0,1.71-1.39,3.1-3.1,3.1s-3.1-1.39-3.1-3.1s1.39-3.1,3.1-3.1
							S1769.02,360.33,1769.02,362.04z"/>
						<path class="st2" d="M1806,362.04c0,1.71-1.39,3.1-3.1,3.1s-3.1-1.39-3.1-3.1s1.39-3.1,3.1-3.1S1806,360.33,1806,362.04z"/>
						<path class="st2" d="M1842.97,362.04c0,1.71-1.39,3.1-3.1,3.1s-3.1-1.39-3.1-3.1s1.39-3.1,3.1-3.1
							S1842.97,360.33,1842.97,362.04z"/>
						<path class="st2" d="M1879.95,362.04c0,1.71-1.39,3.1-3.1,3.1s-3.1-1.39-3.1-3.1s1.39-3.1,3.1-3.1
							C1878.56,358.94,1879.95,360.33,1879.95,362.04z"/>
						<path class="st2" d="M1916.92,362.04c0,1.71-1.39,3.1-3.1,3.1s-3.1-1.39-3.1-3.1s1.39-3.1,3.1-3.1
							S1916.92,360.33,1916.92,362.04z"/>
						<path class="st2" d="M1953.9,362.04c0,1.71-1.39,3.1-3.1,3.1s-3.1-1.39-3.1-3.1s1.39-3.1,3.1-3.1S1953.9,360.33,1953.9,362.04
							z"/>
						<path class="st2" d="M1990.87,362.04c0,1.71-1.39,3.1-3.1,3.1s-3.1-1.39-3.1-3.1s1.39-3.1,3.1-3.1
							S1990.87,360.33,1990.87,362.04z"/>
					</g>
					<g>
						<path class="st2" d="M1769.02,394.81c0,1.71-1.39,3.1-3.1,3.1s-3.1-1.39-3.1-3.1s1.39-3.1,3.1-3.1
							S1769.02,393.1,1769.02,394.81z"/>
						<path class="st2" d="M1806,394.81c0,1.71-1.39,3.1-3.1,3.1s-3.1-1.39-3.1-3.1s1.39-3.1,3.1-3.1S1806,393.1,1806,394.81z"/>
						<path class="st2" d="M1842.97,394.81c0,1.71-1.39,3.1-3.1,3.1s-3.1-1.39-3.1-3.1s1.39-3.1,3.1-3.1
							S1842.97,393.1,1842.97,394.81z"/>
						<path class="st2" d="M1879.95,394.81c0,1.71-1.39,3.1-3.1,3.1s-3.1-1.39-3.1-3.1s1.39-3.1,3.1-3.1
							C1878.56,391.71,1879.95,393.1,1879.95,394.81z"/>
						<path class="st2" d="M1916.92,394.81c0,1.71-1.39,3.1-3.1,3.1s-3.1-1.39-3.1-3.1s1.39-3.1,3.1-3.1
							S1916.92,393.1,1916.92,394.81z"/>
						<path class="st2" d="M1953.9,394.81c0,1.71-1.39,3.1-3.1,3.1s-3.1-1.39-3.1-3.1s1.39-3.1,3.1-3.1S1953.9,393.1,1953.9,394.81z
							"/>
						<path class="st2" d="M1990.87,394.81c0,1.71-1.39,3.1-3.1,3.1s-3.1-1.39-3.1-3.1s1.39-3.1,3.1-3.1
							S1990.87,393.1,1990.87,394.81z"/>
					</g>
				</g>
				<g>
					<polygon class="st3" points="579.93,65.49 550.9,0 575.22,0 604.26,65.49 					"/>
					<polygon class="st3" points="526.57,65.49 497.54,0 521.86,0 550.9,65.49 					"/>
					<polygon class="st3" points="473.21,65.49 444.17,0 468.5,0 497.54,65.49 					"/>
					<polygon class="st3" points="419.85,65.49 390.81,0 415.14,0 444.17,65.49 					"/>
					<polygon class="st3" points="366.49,65.49 337.45,0 361.78,0 390.81,65.49 					"/>
					<polygon class="st3" points="313.13,65.49 284.09,0 308.42,0 337.45,65.49 					"/>
					<polygon class="st3" points="259.77,65.49 230.73,0 255.06,0 284.09,65.49 					"/>
					<polygon class="st3" points="206.4,65.49 177.37,0 201.7,0 230.73,65.49 					"/>
				</g>
				<g>
					<polygon class="st3" points="2398.28,379.63 2377.45,332.65 2394.9,332.65 2415.74,379.63 					"/>
					<polygon class="st3" points="2360,379.63 2339.17,332.65 2356.62,332.65 2377.45,379.63 					"/>
					<polygon class="st3" points="2321.72,379.63 2300.89,332.65 2318.34,332.65 2339.17,379.63 					"/>
					<polygon class="st3" points="2283.43,379.63 2262.6,332.65 2280.06,332.65 2300.89,379.63 					"/>
					<polygon class="st3" points="2245.15,379.63 2224.32,332.65 2241.77,332.65 2262.6,379.63 					"/>
					<polygon class="st3" points="2206.87,379.63 2186.04,332.65 2203.49,332.65 2224.32,379.63 					"/>
					<polygon class="st3" points="2168.58,379.63 2147.75,332.65 2165.21,332.65 2186.04,379.63 					"/>
					<polygon class="st3" points="2130.3,379.63 2109.47,332.65 2126.92,332.65 2147.75,379.63 					"/>
				</g>
				<g>
					<path class="st4" d="M726.65,136.48l-59.03-59.03c-0.93-0.93-0.93-2.43,0-3.35l57.59-57.59l-57.59-57.59
						c-0.93-0.93-0.93-2.43,0-3.35l59.03-59.03c0.93-0.93,2.43-0.93,3.35,0l57.59,57.59l57.59-57.59c0.93-0.93,2.43-0.93,3.35,0
						l59.03,59.03c0.93,0.93,0.93,2.43,0,3.35l-57.59,57.59l57.59,57.59c0.93,0.93,0.93,2.43,0,3.35l-59.03,59.03
						c-0.93,0.93-2.43,0.93-3.35,0L787.6,78.89L730,136.48C729.08,137.41,727.58,137.41,726.65,136.48z M672.65,75.78l55.68,55.68
						l57.59-57.59c0.93-0.93,2.43-0.93,3.35,0l57.59,57.59l55.67-55.67L844.94,18.2c-0.93-0.93-0.93-2.43,0-3.35l57.59-57.59
						l-55.68-55.68l-57.59,57.59c-0.93,0.93-2.43,0.93-3.35,0l-57.59-57.59l-55.67,55.67l57.59,57.59c0.93,0.93,0.93,2.43,0,3.35
						L672.65,75.78z"/>
				</g>
				<g>
					<path class="st3" d="M0,583.72v-3.25h222.24c99.7,0,180.81-81.11,180.81-180.81s-81.11-180.81-180.81-180.81H0v-3.25h222.24
						c101.49,0,184.06,82.57,184.06,184.05c0,101.49-82.57,184.06-184.06,184.06H0V583.72z"/>
				</g>
				<g>
					<path class="st3" d="M0,569.77v-3.25h211.96c21.42,0,49.54-4.9,66.88-11.64c66.05-25.69,108.73-86.61,108.73-155.21
						c0-68.58-42.67-129.5-108.71-155.2c-17.34-6.75-45.47-11.65-66.87-11.65H0v-3.25h211.99c21.75,0,50.37,4.99,68.05,11.87
						c67.29,26.19,110.78,88.3,110.78,158.23c0,69.94-43.49,132.05-110.8,158.23c-17.67,6.88-46.29,11.87-68.06,11.87L0,569.77
						L0,569.77z"/>
				</g>
				<g>
					<path class="st3" d="M0,555.81v-3.25h201.68c17.03,0,49.87-4.29,63.94-9.31c64.68-23.06,106.47-79.42,106.47-143.59
						c0-64.15-41.78-120.51-106.45-143.58c-14.07-5.02-46.89-9.31-63.89-9.31H0v-3.25h201.75c17.36,0,50.21,4.24,64.98,9.51
						c65.98,23.53,108.61,81.09,108.61,146.64c0,65.56-42.64,123.12-108.63,146.64c-14.76,5.26-47.65,9.5-65.03,9.5H0z"/>
				</g>
				<g>
					<path class="st3" d="M0,541.85v-3.25h191.4c12.36,0,50.2-3.5,61-6.97c63.3-20.36,104.2-72.15,104.2-131.97
						c0-59.81-40.9-111.6-104.19-131.96c-11.22-3.61-48.67-6.98-60.92-6.98H0v-3.25h191.5c12.4,0,50.44,3.45,61.91,7.14
						c64.66,20.8,106.45,73.81,106.45,135.05c0,61.25-41.79,114.26-106.46,135.06c-11.46,3.68-49.55,7.13-61.99,7.13L0,541.85
						L0,541.85z"/>
				</g>
				<g>
					<path class="st3" d="M0,527.9v-3.25h181.12c8.14,0,50.65-2.53,58.06-4.64c61.92-17.58,101.94-64.82,101.94-120.34
						s-40.01-102.75-101.93-120.34c-7.42-2.11-49.82-4.64-57.94-4.64H0v-3.25h181.26c8.42,0,51,2.54,58.83,4.76
						c63.35,17.99,104.29,66.46,104.29,123.47c0,57.02-40.94,105.48-104.3,123.47c-7.83,2.22-50.51,4.76-58.95,4.76H0z"/>
				</g>
				<g>
					<path class="st3" d="M0,513.94v-3.25h170.85c4.5,0,51.62-1.45,55.13-2.31c48.19-11.75,99.67-46.47,99.67-108.72
						c0-62.24-48.55-104.12-99.66-108.72c-3.6-0.32-50.49-2.31-54.98-2.31H0v-3.25h171.01c2.55,0,51.44,1.98,55.75,2.4
						c52.79,5.12,102.14,47.75,102.14,111.87c0,64.13-52.77,99.84-102.14,111.87c-4.21,1.03-53.34,2.4-55.9,2.4H0V513.94z"/>
				</g>
				<g>
					<path class="st3" d="M0,499.98v-3.25h213.1c53.53,0,97.07-43.54,97.07-97.07s-43.54-97.07-97.07-97.07H0v-3.25h213.1
						c55.31,0,100.31,45,100.31,100.32s-45,100.32-100.31,100.32H0z"/>
				</g>
				<g>
					<g>
						<path class="st3" d="M1871.83-219.31h3.25V2.92c0,99.7,81.11,180.81,180.81,180.81S2236.7,102.62,2236.7,2.92v-222.24h3.25
							V2.92c0,101.49-82.57,184.06-184.05,184.06c-101.49,0-184.06-82.57-184.06-184.06L1871.83-219.31L1871.83-219.31z"/>
					</g>
					<g>
						<path class="st3" d="M1885.79-219.31h3.25V-7.35c0,21.42,4.9,49.54,11.64,66.88c25.69,66.05,86.61,108.73,155.21,108.73
							c68.58,0,129.5-42.67,155.2-108.71c6.75-17.34,11.65-45.47,11.65-66.87v-211.99h3.25V-7.32c0,21.75-4.99,50.37-11.87,68.05
							c-26.19,67.29-88.3,110.78-158.23,110.78c-69.94,0-132.05-43.49-158.23-110.79c-6.88-17.67-11.87-46.29-11.87-68.06
							L1885.79-219.31L1885.79-219.31z"/>
					</g>
					<g>
						<path class="st3" d="M1899.74-219.31h3.25v201.68c0,17.03,4.29,49.87,9.31,63.94c23.06,64.68,79.42,106.47,143.59,106.47
							c64.15,0,120.51-41.78,143.58-106.45c5.02-14.07,9.31-46.89,9.31-63.89v-201.75h3.25v201.75c0,17.36-4.24,50.21-9.51,64.98
							c-23.53,65.98-81.09,108.61-146.64,108.61c-65.56,0-123.12-42.64-146.64-108.63c-5.26-14.76-9.5-47.65-9.5-65.03
							L1899.74-219.31L1899.74-219.31z"/>
					</g>
					<g>
						<path class="st3" d="M1913.7-219.31h3.25v191.4c0,12.36,3.5,50.2,6.97,61c20.36,63.3,72.15,104.2,131.97,104.2
							c59.81,0,111.6-40.9,131.96-104.19c3.61-11.22,6.98-48.67,6.98-60.92v-191.5h3.25v191.5c0,12.4-3.45,50.44-7.14,61.91
							c-20.8,64.66-73.81,106.45-135.05,106.45c-61.25,0-114.26-41.79-135.06-106.46c-3.68-11.46-7.13-49.55-7.13-61.99
							L1913.7-219.31L1913.7-219.31z"/>
					</g>
					<g>
						<path class="st3" d="M1927.66-219.31h3.25v181.12c0,8.14,2.53,50.65,4.64,58.06c17.58,61.92,64.82,101.94,120.34,101.94
							c55.52,0,102.75-40.01,120.34-101.93c2.11-7.42,4.64-49.82,4.64-57.94v-181.26h3.25v181.26c0,8.42-2.54,50.99-4.76,58.83
							c-17.99,63.35-66.46,104.29-123.47,104.29c-57.02,0-105.48-40.94-123.47-104.3c-2.22-7.83-4.76-50.51-4.76-58.95
							L1927.66-219.31L1927.66-219.31z"/>
					</g>
					<g>
						<path class="st3" d="M1941.61-219.31h3.25v170.85c0,4.5,1.45,51.62,2.31,55.13c11.75,48.18,46.47,99.67,108.72,99.67
							c62.24,0,96.97-51.48,108.72-99.66c0.86-3.51,2.31-50.49,2.31-54.98v-171.01h3.25V-48.3c0,2.55-1.37,51.54-2.4,55.75
							c-12.04,49.38-47.75,102.14-111.87,102.14c-64.13,0-99.84-52.77-111.87-102.14c-1.03-4.21-2.4-53.34-2.4-55.9v-170.86H1941.61
							z"/>
					</g>
					<g>
						<path class="st3" d="M1955.57-219.31h3.25v213.1c0,53.53,43.54,97.07,97.07,97.07c53.53,0,97.07-43.54,97.07-97.07v-213.1
							h3.25v213.1c0,55.31-45,100.31-100.32,100.31c-55.32,0-100.32-45-100.32-100.31V-219.31z"/>
					</g>
				</g>
			</g>
		</g>
	</g>
	<g>
		<g>
			<g>
				<g>
					<g>
						<path class="st2" d="M1155.83,267.7h-38.26v-25.1h-57.47v25.1h-38.26v-91.91h48.2v5c0,10.36,8.43,18.79,18.79,18.79
							c10.36,0,18.79-8.43,18.8-18.79l0-5h48.2V267.7z M1127.57,257.7h18.26v-71.91h-28.64c-2.38,13.5-14.2,23.79-28.36,23.79
							c-14.17,0-25.98-10.29-28.36-23.79h-28.63v71.91h18.26v-25.1h77.47V257.7z"/>
					</g>
					<g>
						<path class="st2" d="M1155.81,185.78h-48.2v-5c0-10.36-8.43-18.79-18.79-18.79s-18.79,8.43-18.79,18.79v5h-48.2V93.87h38.26
							v25.1h57.47v-25.1h38.25V185.78z M1117.18,175.78h28.63v-71.91h-18.25v25.1h-77.47v-25.1h-18.26v71.91h28.63
							c2.37-13.5,14.19-23.79,28.36-23.79S1114.8,162.28,1117.18,175.78z"/>
					</g>
					<g>
						<path class="st2" d="M1127.57,128.97h-77.47v-35.1h77.47V128.97z M1060.1,118.97h57.47v-15.1h-57.47V118.97z"/>
					</g>
					<g>
						<path class="st2" d="M1127.57,267.7h-77.47v-35.1h77.47V267.7z M1060.1,257.7h57.47v-15.1h-57.47V257.7z"/>
					</g>
					<g>
						<g>
							<path class="st5" d="M1088.83,204.58c13.14,0,23.79-10.65,23.79-23.79h-47.59C1065.04,193.92,1075.69,204.58,1088.83,204.58z
								"/>
							<path class="st2" d="M1088.83,209.58c-15.87,0-28.79-12.91-28.8-28.79l0-5h57.59v5
								C1117.62,196.66,1104.71,209.58,1088.83,209.58z M1070.71,185.79c2.2,7.94,9.49,13.79,18.12,13.79
								c8.63,0,15.92-5.85,18.11-13.79H1070.71z"/>
						</g>
						<g>
							<path class="st5" d="M1088.83,156.99c-13.14,0-23.79,10.65-23.79,23.79h47.59C1112.62,167.64,1101.97,156.99,1088.83,156.99z
								"/>
							<path class="st2" d="M1117.63,185.78h-57.59v-5c0-15.88,12.92-28.79,28.79-28.79c15.87,0,28.79,12.91,28.8,28.79
								L1117.63,185.78z M1070.72,175.78h36.23c-2.2-7.94-9.49-13.79-18.12-13.79C1080.2,161.99,1072.91,167.84,1070.72,175.78z"/>
						</g>
					</g>
				</g>
			</g>
		</g>
		<path class="st3" d="M1189.24,114.29c-0.27,6.24-0.4,12.66-0.4,19.26v9.86h-2.42l-0.83-0.03l-11.75,0.1
			c-0.75,0-1.15,0.01-1.19,0.03c0-0.02,0.04-0.21,0.13-0.56v-0.2l0.03-0.13c-0.11-1.59-0.16-3.52-0.16-5.79l0.13-36.96l-0.03-1.72
			V96.5l-0.07-3.11c0-0.22,0.12-0.45,0.36-0.69h4.53l2.65-0.03c6.22,0,10.67,0.09,13.35,0.26c2.68,0.18,4.6,0.26,5.77,0.26
			c0.64,3.79,1.59,8.82,2.85,15.09l2.35,11.85h1.16l4.24-21.64c0.07-0.33,0.22-1.3,0.46-2.9s0.43-2.49,0.56-2.66h0.13l21.54-0.2
			l1.29,0.03h3.71c0.2,0.09,0.31,0.5,0.33,1.22l0.33,12.51c0.26,10.37,0.45,18.44,0.56,24.22c0,4.46-0.07,8.64-0.2,12.54
			c-0.07,0.26-0.51,0.42-1.32,0.46l-1.49,0.07c-1.19,0.04-2.07,0.07-2.65,0.07h-1.72c-2.14,0.02-5.29,0.03-9.46,0.03
			c-0.77-0.68-1.16-3.64-1.16-8.87l0.07-10.39v-2.68c0-2.36-0.01-4.1-0.03-5.23l-1.26-0.23c-0.73,2.67-2.13,8.61-4.2,17.84
			l-0.3,1.32c-0.15,0.68-0.41,1.9-0.78,3.66c-0.36,1.75-0.66,3.08-0.88,3.99c-0.27,0.31-1.43,0.46-3.51,0.46h-0.43l-3.71-0.1
			l-2.02,0.03h-1.56l-2.61,0.03h-0.93c-1.01,0-1.58-0.23-1.69-0.7l0.03,0.03l-3.01-13.14c-0.09-0.33-0.29-1.05-0.6-2.17
			c-0.31-1.11-0.49-2.05-0.53-2.8l-2.48-10.72L1189.24,114.29z M1292.08,117.1l-0.1,9.3c0,2.85-0.46,5.36-1.37,7.54
			c-0.92,2.18-2.12,3.95-3.62,5.29c-4.08,3.71-10.12,5.56-18.1,5.56c-7.99,0-14.2-1.94-18.63-5.82c-1.57-1.35-2.88-3.09-3.95-5.24
			c-1.07-2.15-1.72-4.58-1.93-7.3c0.11-9.22,0.16-17.75,0.16-25.58c-0.11,0-0.16-1.16-0.16-3.47c0-2.32,0.1-3.75,0.3-4.3h0.69
			c3.24-0.18,7.67-0.26,13.27-0.26c0.4,0.09,1.12,0.14,2.17,0.17c1.05,0.02,1.77,0.06,2.17,0.1l1.03,0.13
			c0.15,4.37,0.25,10.38,0.3,18.03l-0.2,13.3c0,4.41,1.28,6.62,3.84,6.62c1.08,0,1.99-0.47,2.73-1.42s1.13-2.02,1.17-3.21l0.13-0.33
			l0.1-11.15l0.03-0.99c0-5.12-0.07-10.06-0.2-14.82l-0.07-2.42c-0.04-0.97-0.07-1.84-0.07-2.61c0-0.77,0.12-1.3,0.36-1.59
			c8.51,0,14.94,0.03,19.26,0.1c0.15,0.15,0.35,0.3,0.6,0.43h-0.03l0.36,0.23c-0.18,4.17-0.26,9.53-0.26,16.08v5.69L1292.08,117.1z
			 M1348.2,119.58l-0.03,2.22v12.24l0.07,5.82v1.65l0.03,1.55c-0.13,0.18-0.67,0.26-1.62,0.26h-0.86l-10.39,0.13
			c-4.41,0-7.7-0.01-9.86-0.03c-0.33-0.35-1.53-3.56-3.61-9.63l-6.32-16.78l-1.19,0.17l-0.03,3.38v8.97l0.13,8.97v3.71
			c0,0.99-0.22,1.51-0.66,1.56c-2.18-0.07-4.27-0.1-6.25-0.1h-1.03l-5,0.13h-0.66l-2.38,0.07l-0.1-0.07
			c-0.73-0.68-1.09-1.18-1.09-1.49v-0.6l0.03-0.66l0.17-12.9c0-14.16,0.13-24.87,0.4-32.13l0.07-2.75c0-0.2,7.6-0.37,22.8-0.53
			c0.13,0.09,0.33,0.57,0.6,1.46v-0.1l0.2,0.66c1.63,4.68,3.62,10.04,5.96,16.1s3.53,9.15,3.57,9.28l1.12-0.07l0.13-26.97
			c0-0.18,1.61-0.26,4.83-0.26l8.31,0.17h2.45C1348.12,100.31,1348.2,109.17,1348.2,119.58z M1368.52,92.71l6.19-0.1
			c10.79,0,18.36,1.79,22.73,5.36c0.93,0.68,1.94,1.83,3.04,3.44c3.2,4.65,4.8,9.79,4.8,15.42c0,10.04-3.45,17.46-10.36,22.27
			c-4.13,2.89-8.87,4.36-14.23,4.4l-0.13,0.13h-0.83l-8.8-0.1c-3.99,0-8.99,0.1-14.99,0.3c-0.42-0.79-0.63-1.73-0.63-2.81l0.03-1.19
			v-5.16l0.07-7.35v-12.11c-0.04-2.78-0.07-4.85-0.07-6.22v-5.43l0.03-0.76v-9.46c0-0.18,1.2-0.33,3.61-0.45
			c2.4-0.12,4.32-0.18,5.76-0.18H1368.52z M1382.55,104.16c-1.26-0.9-2.65-1.41-4.17-1.52c-0.53-0.02-1.25-0.04-2.17-0.07
			c-0.92-0.02-1.58-0.04-2-0.07c-0.4,0.6-0.66,1.04-0.79,1.32l-0.6,1.22v1.85c0,3.82,0.09,8.99,0.26,15.52l0.2,9.56
			c0.13,0.68,0.57,1.09,1.32,1.22c2.27-0.04,4.02-0.2,5.26-0.46c4.35-1.54,6.52-6.83,6.52-15.85
			C1386.39,110.22,1385.11,105.97,1382.55,104.16z M1409.45,139.2c0-4.48,0.12-7.59,0.36-9.33c0-9.6,0.13-19.27,0.4-29.02
			c-0.07-1.39-0.1-2.79-0.1-4.2v-1.09c-0.09-0.68-0.13-1.29-0.13-1.82s0.05-0.87,0.17-1.03c4.72,0.29,8.86,0.43,12.41,0.43
			s5.99-0.07,7.31-0.2c0.04,0.07,0.08,0.25,0.1,0.56h-0.23v11.98l0.23,26.93c0,0.2,0.03,0.36,0.1,0.5v0.07
			c0.07,0.13,0.1,0.28,0.1,0.43l0.26,9.63c-0.11,0.24-0.31,0.43-0.6,0.56h-1.12l-18.53,0.3c-0.22-0.11-0.51-0.28-0.86-0.5l0.03-0.56
			L1409.45,139.2z M1490.06,143.11c-0.02,0.29-0.63,0.43-1.82,0.43h-3.04l-2.05,0.03h-2.02l-3.21,0.03c-3.2,0-5.86-0.08-7.97-0.23
			c-0.07-0.02-0.14-0.15-0.23-0.4l-0.17-0.7c-0.2-2.27-0.72-4.47-1.55-6.58l-14.16,0.13c-0.09,0.38-0.38,1.49-0.86,3.34
			c-0.49,1.85-0.85,3.25-1.09,4.2c-0.22,0.22-1.27,0.33-3.14,0.33l-0.83-0.03H1446l-8.6,0.2h-0.99l-0.93,0.03h-2.32
			c-0.15-0.15-0.32-0.35-0.5-0.6c2.21-7.63,5.2-17.1,8.97-28.39l0.76-2.35h-0.03l0.89-2.75c0.29-0.88,1.11-3.33,2.46-7.35
			c1.36-4.01,2.21-6.61,2.55-7.78c0.34-1.17,0.55-1.78,0.61-1.82h5.49l11.75-0.17l3.18,0.17l2.61-0.17c1.32,0,1.98,0.26,1.98,0.79
			c2.21,6.15,5.15,15.01,8.84,26.57c3.68,11.56,5.76,18.06,6.22,19.49l0.46,1.65C1489.55,141.82,1489.77,142.45,1490.06,143.11z
			 M1457.3,125.04l1.36,0.03l7.91-0.03c-0.33-2.62-0.58-4.55-0.76-5.79l-1.26-5.66c-1.32-5.85-2.01-8.82-2.05-8.93
			s-0.08-0.22-0.12-0.31s-0.06-0.17-0.08-0.2c-0.02-0.03-0.05-0.09-0.08-0.18c-0.03-0.09-0.07-0.15-0.1-0.18s-0.07-0.08-0.12-0.15
			c-0.15-0.26-0.47-0.5-0.96-0.7c-0.6,0.13-2.37,6.77-5.33,19.92l-0.36,2.18H1457.3z M1530.16,130.04
			c-0.15,0.62-0.23,1.28-0.23,1.99v0.76c0,1.17,0.08,2.01,0.23,2.51c0,3.33-0.01,5.9-0.03,7.71c-0.13,0.57-11.02,0.86-32.66,0.86
			c-0.99,0-2.64-0.02-4.93-0.07c-0.35-0.66-0.53-1.75-0.53-3.28l0.07-2.15v-7.51l0.03-6.29v-6.22l0.03-10.03
			c0-1.85-0.02-3.6-0.07-5.23v-0.36l-0.1-4.77c0-2.8,0.23-4.62,0.7-5.46c0.44,0.02,1.05,0.03,1.82,0.03h1.59l5.56-0.07
			c6.33,0,9.82,0.4,10.46,1.19l-0.26,11.55l-0.1,9.7l-0.03,0.4l-0.13,13.77l1.32,0.76c3.99-0.24,7.86-0.36,11.6-0.36
			C1528.22,129.48,1530.12,129.66,1530.16,130.04z M1185.37,155.4l6.19-0.1c10.79,0,18.36,1.79,22.73,5.36
			c0.93,0.68,1.94,1.83,3.04,3.44c3.2,4.65,4.8,9.79,4.8,15.42c0,10.04-3.45,17.46-10.36,22.27c-4.13,2.89-8.87,4.36-14.23,4.4
			l-0.13,0.13h-0.83l-8.8-0.1c-3.99,0-8.99,0.1-14.99,0.3c-0.42-0.79-0.63-1.73-0.63-2.81l0.03-1.19v-5.16l0.07-7.35V177.9
			c-0.04-2.78-0.07-4.85-0.07-6.22v-5.43l0.03-0.76v-9.46c0-0.18,1.2-0.33,3.61-0.45c2.4-0.12,4.32-0.18,5.76-0.18L1185.37,155.4
			L1185.37,155.4z M1199.4,166.85c-1.26-0.9-2.65-1.41-4.17-1.52c-0.53-0.02-1.25-0.04-2.17-0.07c-0.92-0.02-1.58-0.04-2-0.07
			c-0.4,0.6-0.66,1.04-0.79,1.32l-0.6,1.22v1.85c0,3.82,0.09,8.99,0.26,15.52l0.2,9.56c0.13,0.68,0.57,1.09,1.32,1.22
			c2.27-0.04,4.03-0.2,5.26-0.46c4.35-1.54,6.52-6.83,6.52-15.85C1203.24,172.9,1201.96,168.66,1199.4,166.85z M1226.3,201.89
			c0-4.48,0.12-7.59,0.36-9.33c0-9.6,0.13-19.27,0.4-29.02c-0.07-1.39-0.1-2.79-0.1-4.2v-1.09c-0.09-0.68-0.13-1.29-0.13-1.82
			c0-0.53,0.06-0.87,0.17-1.03c4.72,0.29,8.86,0.43,12.41,0.43s5.99-0.07,7.31-0.2c0.04,0.07,0.08,0.25,0.1,0.56h-0.23v11.98
			l0.23,26.93c0,0.2,0.03,0.36,0.1,0.5v0.07c0.07,0.13,0.1,0.28,0.1,0.43l0.26,9.63c-0.11,0.24-0.31,0.43-0.6,0.56h-1.12l-18.53,0.3
			c-0.22-0.11-0.51-0.28-0.86-0.5l0.03-0.56L1226.3,201.89z M1304.13,203.51c0,0.02,0.01,0.07,0.03,0.13l-0.1,0.26h0.03v0.07
			c0,0.05-0.01,0.08-0.03,0.1c-1.04,0.79-3.57,1.52-7.59,2.18c-4.03,0.66-6.79,0.99-8.31,0.99c-1.51,0-2.35-0.01-2.53-0.03
			l-1.69,0.1c-1.76,0.11-2.78,0.17-3.04,0.17c-9.27,0-16.32-2.33-21.16-6.98c-4.84-4.65-7.26-11.27-7.26-19.84
			s2.61-15.07,7.82-19.51c5.22-4.43,12.28-6.65,21.19-6.65c1.63,0,3.65,0.15,6.04,0.46c2.39,0.31,4.49,0.76,6.3,1.36
			c2.21,0.9,4.1,2.21,5.68,3.92c1.58,1.71,2.61,3.6,3.09,5.67c0.09,0.57,0.19,1.47,0.31,2.7c0.12,1.22,0.23,2.12,0.32,2.7
			c-0.13,0.33-0.61,0.5-1.42,0.5l-16.81-0.3c-0.09-0.04-0.2-0.34-0.33-0.89v0.1c-0.4-1.79-1.18-2.88-2.35-3.28
			c-0.53-0.2-1.22-0.3-2.09-0.3s-1.67,0.14-2.43,0.43s-1.4,0.68-1.9,1.19c-0.51,0.51-0.96,1.1-1.36,1.77s-0.69,1.4-0.89,2.17
			c-0.2,0.77-0.37,1.57-0.53,2.38c-0.16,0.82-0.25,1.62-0.28,2.42c-0.03,0.79-0.07,1.55-0.1,2.28s-0.04,1.33-0.02,1.8
			s0.03,0.79,0.03,0.94v2.28c0,1.43,0.07,2.43,0.2,2.99s0.29,1.18,0.46,1.85c0.18,0.67,0.38,1.19,0.63,1.54
			c0.86,1.21,1.79,2.06,2.8,2.53c1,0.47,2.57,0.71,4.7,0.71s4.15-0.32,6.07-0.96l0.17-5.23l-2.38-0.2l-0.33,0.17h-3.44l-0.4,0.03
			l-0.83-0.86c-0.04-0.37-0.07-0.97-0.07-1.79v-7.41c0-0.37,0.26-0.75,0.79-1.12h2.22c1.92,0,4.07,0.02,6.45,0.07h0.33
			c2.16,0.04,3.8,0.07,4.93,0.07h1.99l0.76-0.03c3.93,0,6.17,0.25,6.72,0.76l-0.4,25.12v0.47H1304.13z M1309.78,201.89
			c0-4.48,0.12-7.59,0.36-9.33c0-9.6,0.13-19.27,0.4-29.02c-0.07-1.39-0.1-2.79-0.1-4.2v-1.09c-0.09-0.68-0.13-1.29-0.13-1.82
			c0-0.53,0.05-0.87,0.17-1.03c4.72,0.29,8.86,0.43,12.41,0.43s5.99-0.07,7.31-0.2c0.04,0.07,0.08,0.25,0.1,0.56h-0.23v11.98
			l0.23,26.93c0,0.2,0.03,0.36,0.1,0.5v0.07c0.07,0.13,0.1,0.28,0.1,0.43l0.27,9.63c-0.11,0.24-0.31,0.43-0.6,0.56h-1.13l-18.53,0.3
			c-0.22-0.11-0.51-0.28-0.86-0.5l0.03-0.56L1309.78,201.89z M1378.48,167.87c0,0.73-0.08,1.09-0.23,1.09l-11.98-0.1
			c-0.04,2.14-0.07,5.48-0.07,10.03c0,4.54,0.01,7.7,0.03,9.46l0.13,17.54c-0.11,0.31-0.33,0.47-0.66,0.5l-6.98-0.1l-0.03,0.03
			l-2.18-0.03h-6.06c-1.63,0-2.86,0.01-3.67,0.03l-0.56-0.5c-0.02-0.02-0.17-0.2-0.43-0.53c0-1.94,0.08-6.25,0.23-12.94l0.36-17.6
			l-0.07-0.83c-0.15-2.18-0.3-3.48-0.45-3.89c-0.14-0.41-0.42-0.63-0.84-0.66c-0.42-0.03-0.73-0.05-0.93-0.05l-1.32,0.07l-8.21-0.13
			c-0.29-0.57-0.43-1.86-0.43-3.87l0.07-2.91v-0.89c-0.02-3.53-0.06-5.42-0.1-5.66c0.04,0,0.13,0.02,0.26,0.07l42.12-0.36
			c0.86,0,1.4,0.06,1.62,0.18s0.33,0.35,0.33,0.68v8.74L1378.48,167.87z M1430.26,205.79c-0.02,0.29-0.63,0.43-1.82,0.43h-3.04
			l-2.05,0.03h-2.02l-3.21,0.03c-3.2,0-5.86-0.08-7.97-0.23c-0.07-0.02-0.14-0.15-0.23-0.4l-0.17-0.7c-0.2-2.27-0.72-4.47-1.55-6.58
			l-14.16,0.13c-0.09,0.38-0.38,1.49-0.86,3.34c-0.49,1.85-0.85,3.25-1.09,4.2c-0.22,0.22-1.27,0.33-3.14,0.33l-0.83-0.03h-1.92
			l-8.6,0.2h-0.99l-0.93,0.03h-2.32c-0.15-0.15-0.32-0.35-0.5-0.6c2.21-7.63,5.2-17.1,8.97-28.39l0.76-2.35h-0.03l0.89-2.75
			c0.29-0.88,1.11-3.33,2.46-7.35c1.36-4.01,2.21-6.61,2.55-7.78c0.34-1.17,0.55-1.78,0.61-1.82h5.49l11.75-0.17l3.18,0.17
			l2.61-0.17c1.32,0,1.98,0.26,1.98,0.79c2.21,6.15,5.15,15.01,8.84,26.57c3.68,11.56,5.76,18.06,6.22,19.49l0.46,1.65
			C1429.76,204.5,1429.98,205.13,1430.26,205.79z M1397.51,187.73l1.36,0.03l7.91-0.03c-0.33-2.62-0.58-4.55-0.76-5.79l-1.26-5.66
			c-1.32-5.85-2.01-8.82-2.05-8.93c-0.04-0.11-0.08-0.22-0.12-0.31c-0.03-0.1-0.06-0.17-0.08-0.2c-0.02-0.03-0.05-0.09-0.08-0.18
			c-0.03-0.09-0.07-0.15-0.1-0.18s-0.07-0.08-0.12-0.15c-0.15-0.26-0.47-0.5-0.96-0.7c-0.6,0.13-2.37,6.77-5.33,19.92l-0.36,2.18
			L1397.51,187.73L1397.51,187.73z M1470.37,192.72c-0.15,0.62-0.23,1.28-0.23,1.99v0.76c0,1.17,0.08,2.01,0.23,2.51
			c0,3.33-0.01,5.9-0.03,7.71c-0.13,0.57-11.02,0.86-32.66,0.86c-0.99,0-2.64-0.02-4.93-0.07c-0.35-0.66-0.53-1.75-0.53-3.28
			l0.07-2.15v-7.51l0.03-6.29v-6.22l0.03-10.03c0-1.85-0.02-3.6-0.07-5.23v-0.36l-0.1-4.77c0-2.8,0.23-4.62,0.7-5.46
			c0.44,0.02,1.05,0.03,1.82,0.03h1.59l5.56-0.07c6.33,0,9.82,0.4,10.46,1.19l-0.26,11.55l-0.1,9.7l-0.03,0.4l-0.13,13.77l1.32,0.76
			c3.99-0.24,7.86-0.36,11.6-0.36S1470.32,192.35,1470.37,192.72z"/>
		<g>
			<path class="st2" d="M1215.88,260.87l-0.17,6.49v0.66c0,0.55-0.24,0.85-0.73,0.89l-13.63-0.3c-9.49,0-19.4,0.22-29.75,0.66
				l-0.43-0.56c-0.38-0.26-0.56-1.25-0.56-2.96s0.02-3.56,0.07-5.54v-0.23c0.04-1.81,0.07-3.19,0.07-4.14c0-0.35,1.75-1.69,5.26-4
				l5.72-3.8c3.97-2.74,6.99-5.04,9.07-6.92c3.62-3.29,5.43-6.24,5.43-8.87c0-1.15-0.35-2.06-1.04-2.73
				c-0.7-0.67-1.58-1.01-2.66-1.01c-1.08,0-1.91,0.26-2.5,0.78c-0.58,0.52-0.94,1.1-1.08,1.74c-0.42,1.85-0.81,2.88-1.16,3.08
				c-0.68,0.02-1.71,0.03-3.08,0.03h-10.03l-1.49-0.03h-1.29c-0.75,0-1.18-0.1-1.29-0.3c0.18-2.67,0.47-4.63,0.89-5.89
				c0.57-2.1,1.59-3.92,3.06-5.48c1.47-1.56,3.22-2.76,5.24-3.62c3.95-1.63,8.38-2.45,13.3-2.45c7.74,0,13.63,1.74,17.67,5.23
				c3.02,2.56,4.53,5.95,4.53,10.16c0,5.34-2.42,10.22-7.25,14.66c-2.38,2.18-5.54,4.56-9.46,7.11l-2.32,2.08l16.15-0.3
				c1.35,0,2.26,0.46,2.73,1.39C1215.64,257.63,1215.88,259.02,1215.88,260.87z"/>
			<path class="st2" d="M1261.87,256.6c-2.47,6.66-7.29,10.88-14.46,12.64c-2.21,0.55-4.62,0.83-7.23,0.83s-5.06-0.33-7.33-0.99
				c-4.17-1.21-7.46-3.39-9.88-6.54c-2.42-3.14-3.99-6.84-4.71-11.1c-0.2-0.95-0.41-2.87-0.63-5.76l-0.17-2.18
				c0-10.37,3.2-17.87,9.6-22.5c3.73-2.69,8.37-4.31,13.93-4.86h0.46c7.59,0,13.28,2.38,17.09,7.13c3.81,4.75,5.71,11.69,5.71,20.8
				C1264.25,248.29,1263.46,252.48,1261.87,256.6z M1245.31,229.17c-0.41-0.64-0.95-1.13-1.62-1.47s-1.46-0.51-2.37-0.51
				s-1.72,0.19-2.43,0.58c-0.72,0.39-1.31,0.87-1.79,1.44c-0.47,0.57-0.88,1.36-1.21,2.35c-0.88,2.65-1.32,6.34-1.32,11.08
				c0,4.55,0.12,7.46,0.36,8.74c0.51,2.78,1.2,4.78,2.07,5.99s2.09,1.82,3.66,1.82c2.49,0,4.22-1.28,5.2-3.84
				c0.82-2.18,1.22-5.49,1.22-9.93v-0.63c0.09-1.35,0.13-2.96,0.13-4.83s-0.02-3.16-0.07-3.86s-0.12-1.51-0.23-2.45
				s-0.3-1.76-0.58-2.47C1246.06,230.48,1245.72,229.81,1245.31,229.17z"/>
			<path class="st2" d="M1312.5,260.87l-0.17,6.49v0.66c0,0.55-0.24,0.85-0.73,0.89l-13.63-0.3c-9.49,0-19.4,0.22-29.75,0.66
				l-0.43-0.56c-0.37-0.26-0.56-1.25-0.56-2.96s0.02-3.56,0.07-5.54v-0.23c0.05-1.81,0.07-3.19,0.07-4.14c0-0.35,1.75-1.69,5.26-4
				l5.72-3.8c3.97-2.74,6.99-5.04,9.07-6.92c3.62-3.29,5.43-6.24,5.43-8.87c0-1.15-0.35-2.06-1.04-2.73
				c-0.69-0.67-1.58-1.01-2.66-1.01s-1.91,0.26-2.5,0.78c-0.58,0.52-0.94,1.1-1.08,1.74c-0.42,1.85-0.81,2.88-1.16,3.08
				c-0.68,0.02-1.71,0.03-3.08,0.03h-10.03l-1.49-0.03h-1.29c-0.75,0-1.18-0.1-1.29-0.3c0.18-2.67,0.47-4.63,0.89-5.89
				c0.57-2.1,1.59-3.92,3.06-5.48c1.47-1.56,3.21-2.76,5.25-3.62c3.95-1.63,8.38-2.45,13.3-2.45c7.74,0,13.63,1.74,17.67,5.23
				c3.02,2.56,4.53,5.95,4.53,10.16c0,5.34-2.42,10.22-7.25,14.66c-2.38,2.18-5.54,4.56-9.46,7.11l-2.32,2.08l16.15-0.3
				c1.35,0,2.26,0.46,2.73,1.39C1312.26,257.63,1312.5,259.02,1312.5,260.87z"/>
			<path class="st2" d="M1333.18,240.29c2.74-3.24,6.39-4.86,10.97-4.86s8.48,1.49,11.71,4.48c3.23,2.99,4.85,6.74,4.85,11.27
				c0,5.85-2.33,10.52-6.98,14.03c-3.64,2.74-8.29,4.3-13.96,4.7c-4.21-0.04-7.69-0.5-10.44-1.36s-4.7-1.81-5.87-2.85v0.03
				c-3.71-3.73-6.2-7.9-7.48-12.51c-0.66-2.96-0.99-6.24-0.99-9.86c0-5.18,0.99-9.81,2.96-13.86c1.97-4.06,4.81-7.28,8.5-9.66
				s7.98-3.69,12.85-3.94c7.48,0.18,12.82,2.37,16.02,6.59c1.68,2.23,2.72,4.85,3.14,7.87c-1.94,0.49-7.29,0.73-16.05,0.73
				c-0.44,0-0.67,0.04-0.69,0.13l-0.07-1.99c-0.46-0.75-1.31-1.12-2.55-1.12c-2.38,0-4,1.12-4.86,3.38
				c-0.73,1.9-1.09,3.99-1.09,6.29v1.49C1333.15,239.5,1333.16,239.85,1333.18,240.29z M1339,244.29c-4.3,0-6.45,2.82-6.45,8.47
				c0,3.13,1.07,5.37,3.21,6.72l0.4-0.5c0.07,0.02,0.18,0.03,0.33,0.03l-0.13,0.66l0.5,0.17l-0.03-0.03
				c1.1,0.35,1.96,0.53,2.56,0.53c0.61,0,1.31-0.17,2.1-0.5c2.54-1.1,3.8-3.76,3.8-7.97c0-2.4-0.47-4.26-1.42-5.56
				C1342.92,245.01,1341.3,244.34,1339,244.29z"/>
		</g>
	</g>
	<g class="st6">
		<path class="st2" d="M1030.48,315.32c-1.8,0-3.34-0.29-4.64-0.87c-1.3-0.58-2.3-1.49-2.99-2.74c-0.69-1.25-1.04-2.85-1.04-4.82
			v-13.19h2.94v13.5c0,1.86,0.5,3.25,1.5,4.18c1,0.93,2.41,1.39,4.23,1.39c1.84,0,3.27-0.46,4.3-1.39c1.03-0.93,1.55-2.32,1.55-4.18
			v-13.5h2.91v13.19c0,1.96-0.35,3.57-1.05,4.82c-0.7,1.25-1.71,2.16-3.02,2.74C1033.86,315.03,1032.3,315.32,1030.48,315.32z"/>
		<path class="st2" d="M1043.98,314.95v-16.29h2.2l0.25,2.45h0.22c0.43-0.66,0.92-1.2,1.47-1.61c0.55-0.41,1.16-0.72,1.83-0.91
			c0.67-0.2,1.39-0.29,2.15-0.29c1.03,0,1.94,0.18,2.71,0.53c0.77,0.35,1.38,0.92,1.83,1.7c0.44,0.78,0.67,1.85,0.67,3.19v11.24
			h-2.72v-10.87c0-0.68-0.09-1.24-0.26-1.67c-0.18-0.43-0.41-0.77-0.71-1.02c-0.3-0.25-0.66-0.42-1.08-0.53
			c-0.42-0.1-0.89-0.16-1.41-0.16c-0.76,0-1.49,0.19-2.17,0.56c-0.68,0.37-1.22,0.91-1.63,1.61c-0.4,0.7-0.6,1.54-0.6,2.51v9.57
			H1043.98z"/>
		<path class="st2" d="M1067.89,314.95v-16.29h2.2l0.25,2.69h0.22c0.17-0.52,0.39-1.01,0.68-1.47c0.29-0.46,0.68-0.85,1.18-1.15
			c0.5-0.3,1.1-0.45,1.83-0.45c0.31,0,0.59,0.03,0.85,0.08c0.26,0.05,0.45,0.11,0.57,0.17v2.51h-1.02c-0.7,0-1.31,0.12-1.81,0.36
			c-0.51,0.24-0.92,0.57-1.25,1.01c-0.33,0.43-0.57,0.95-0.73,1.55c-0.15,0.6-0.23,1.24-0.23,1.92v9.07H1067.89z"/>
		<path class="st2" d="M1084.36,315.32c-1.61,0-2.97-0.3-4.07-0.91c-1.1-0.61-1.94-1.54-2.51-2.8c-0.57-1.26-0.85-2.86-0.85-4.8
			c0-1.96,0.28-3.57,0.85-4.81c0.57-1.25,1.41-2.18,2.52-2.79c1.11-0.61,2.51-0.91,4.18-0.91c1.53,0,2.81,0.29,3.84,0.88
			c1.03,0.59,1.81,1.47,2.34,2.63s0.79,2.63,0.79,4.38v1.3h-11.7c0.04,1.3,0.23,2.37,0.57,3.2c0.34,0.84,0.85,1.45,1.53,1.83
			s1.54,0.57,2.57,0.57c0.7,0,1.32-0.09,1.84-0.26c0.53-0.17,0.97-0.43,1.33-0.76c0.36-0.33,0.63-0.72,0.82-1.18
			c0.19-0.45,0.29-0.95,0.31-1.49h2.66c-0.02,0.87-0.19,1.67-0.5,2.4s-0.76,1.36-1.36,1.87c-0.6,0.52-1.33,0.92-2.2,1.21
			C1086.47,315.18,1085.47,315.32,1084.36,315.32z M1079.81,305.45h8.82c0-0.91-0.1-1.67-0.31-2.29c-0.21-0.62-0.5-1.12-0.88-1.52
			c-0.38-0.39-0.83-0.68-1.33-0.85c-0.51-0.17-1.08-0.26-1.72-0.26c-0.95,0-1.75,0.18-2.42,0.53c-0.66,0.35-1.17,0.89-1.52,1.61
			C1080.11,303.38,1079.89,304.31,1079.81,305.45z"/>
		<path class="st2" d="M1101.02,315.32c-1.57,0-2.88-0.3-3.95-0.91c-1.06-0.61-1.87-1.55-2.42-2.82c-0.55-1.27-0.82-2.86-0.82-4.78
			s0.27-3.51,0.82-4.77c0.55-1.26,1.36-2.2,2.45-2.82c1.08-0.62,2.42-0.93,4.01-0.93c1.11,0,2.08,0.14,2.9,0.43s1.49,0.71,2.03,1.27
			c0.54,0.56,0.93,1.23,1.19,2.01c0.26,0.78,0.39,1.68,0.39,2.69h-2.76c0-0.95-0.13-1.73-0.39-2.34c-0.26-0.61-0.67-1.06-1.22-1.36
			c-0.56-0.3-1.29-0.45-2.2-0.45s-1.69,0.2-2.35,0.6s-1.17,1.04-1.52,1.9c-0.35,0.87-0.53,2.01-0.53,3.44v0.65
			c0,1.34,0.17,2.46,0.51,3.34c0.34,0.89,0.84,1.54,1.5,1.95c0.66,0.41,1.47,0.62,2.42,0.62c0.93,0,1.68-0.17,2.24-0.5
			c0.57-0.33,0.98-0.81,1.24-1.42c0.26-0.62,0.39-1.36,0.39-2.23h2.66c0,0.91-0.13,1.75-0.39,2.54c-0.26,0.79-0.66,1.47-1.19,2.04
			c-0.54,0.58-1.22,1.03-2.04,1.35C1103.16,315.16,1102.17,315.32,1101.02,315.32z"/>
		<path class="st2" d="M1117.58,315.32c-1.65,0-3.04-0.3-4.16-0.91c-1.13-0.61-1.98-1.54-2.57-2.8c-0.59-1.26-0.88-2.86-0.88-4.8
			c0-1.96,0.29-3.57,0.88-4.81c0.59-1.25,1.44-2.18,2.57-2.79c1.12-0.61,2.51-0.91,4.16-0.91c1.65,0,3.04,0.3,4.16,0.91
			c1.12,0.61,1.98,1.54,2.55,2.79c0.58,1.25,0.87,2.85,0.87,4.81c0,1.94-0.29,3.54-0.87,4.8c-0.58,1.26-1.43,2.19-2.55,2.8
			C1120.62,315.02,1119.23,315.32,1117.58,315.32z M1117.58,313.03c1.05,0,1.93-0.21,2.63-0.62c0.7-0.41,1.23-1.06,1.59-1.94
			c0.36-0.88,0.54-1.99,0.54-3.33v-0.68c0-1.36-0.18-2.48-0.54-3.34s-0.89-1.51-1.59-1.92c-0.7-0.41-1.58-0.62-2.63-0.62
			s-1.94,0.21-2.65,0.62c-0.71,0.41-1.24,1.05-1.59,1.92c-0.35,0.87-0.53,1.98-0.53,3.34v0.68c0,1.34,0.18,2.45,0.53,3.33
			c0.35,0.88,0.88,1.52,1.59,1.94C1115.65,312.83,1116.53,313.03,1117.58,313.03z"/>
		<path class="st2" d="M1128.54,314.95v-16.29h2.2l0.25,2.69h0.22c0.17-0.52,0.39-1.01,0.68-1.47c0.29-0.46,0.68-0.85,1.18-1.15
			c0.5-0.3,1.1-0.45,1.83-0.45c0.31,0,0.59,0.03,0.85,0.08c0.26,0.05,0.45,0.11,0.57,0.17v2.51h-1.02c-0.7,0-1.31,0.12-1.81,0.36
			c-0.51,0.24-0.92,0.57-1.25,1.01c-0.33,0.43-0.57,0.95-0.73,1.55c-0.15,0.6-0.23,1.24-0.23,1.92v9.07H1128.54z"/>
		<path class="st2" d="M1138.82,314.95v-16.29h2.2l0.25,2.69h0.22c0.17-0.52,0.39-1.01,0.68-1.47c0.29-0.46,0.68-0.85,1.18-1.15
			c0.5-0.3,1.1-0.45,1.83-0.45c0.31,0,0.59,0.03,0.85,0.08c0.26,0.05,0.45,0.11,0.57,0.17v2.51h-1.02c-0.7,0-1.31,0.12-1.81,0.36
			c-0.51,0.24-0.92,0.57-1.25,1.01c-0.33,0.43-0.57,0.95-0.73,1.55c-0.15,0.6-0.23,1.24-0.23,1.92v9.07H1138.82z"/>
		<path class="st2" d="M1149.1,295.6v-3.04h2.73v3.04H1149.1z M1149.1,314.95v-16.29h2.73v16.29H1149.1z"/>
		<path class="st2" d="M1161.61,315.32c-1.34,0-2.49-0.3-3.45-0.9s-1.7-1.53-2.23-2.8s-0.79-2.92-0.79-4.94
			c0-1.92,0.27-3.5,0.81-4.74c0.54-1.24,1.28-2.16,2.23-2.76c0.95-0.6,2.05-0.9,3.31-0.9c0.72,0,1.39,0.08,2.01,0.25
			c0.62,0.17,1.17,0.42,1.66,0.77c0.48,0.35,0.91,0.82,1.29,1.39h0.19v-8.14h2.72v22.39h-2.2l-0.25-2.32h-0.22
			c-0.56,0.91-1.28,1.58-2.17,2.03C1163.63,315.1,1162.66,315.32,1161.61,315.32z M1162.26,312.94c1.03,0,1.87-0.23,2.51-0.68
			s1.11-1.12,1.41-1.98c0.3-0.87,0.45-1.94,0.45-3.22v-0.5c0-1.12-0.11-2.05-0.34-2.82c-0.23-0.76-0.54-1.37-0.93-1.83
			s-0.85-0.77-1.36-0.96c-0.52-0.19-1.06-0.28-1.64-0.28c-1.01,0-1.84,0.2-2.48,0.6c-0.64,0.4-1.11,1.03-1.42,1.89
			s-0.46,1.97-0.46,3.33v0.65c0,1.4,0.17,2.53,0.5,3.39c0.33,0.86,0.81,1.47,1.44,1.84
			C1160.55,312.75,1161.33,312.94,1162.26,312.94z"/>
		<path class="st2" d="M1180.31,315.32c-1.65,0-3.04-0.3-4.16-0.91c-1.13-0.61-1.98-1.54-2.57-2.8c-0.59-1.26-0.88-2.86-0.88-4.8
			c0-1.96,0.29-3.57,0.88-4.81c0.59-1.25,1.44-2.18,2.57-2.79c1.12-0.61,2.51-0.91,4.16-0.91c1.65,0,3.04,0.3,4.16,0.91
			c1.12,0.61,1.98,1.54,2.55,2.79c0.58,1.25,0.87,2.85,0.87,4.81c0,1.94-0.29,3.54-0.87,4.8c-0.58,1.26-1.43,2.19-2.55,2.8
			C1183.35,315.02,1181.96,315.32,1180.31,315.32z M1180.31,313.03c1.05,0,1.93-0.21,2.63-0.62c0.7-0.41,1.23-1.06,1.59-1.94
			c0.36-0.88,0.54-1.99,0.54-3.33v-0.68c0-1.36-0.18-2.48-0.54-3.34s-0.89-1.51-1.59-1.92c-0.7-0.41-1.58-0.62-2.63-0.62
			s-1.94,0.21-2.65,0.62c-0.71,0.41-1.24,1.05-1.59,1.92c-0.35,0.87-0.53,1.98-0.53,3.34v0.68c0,1.34,0.18,2.45,0.53,3.33
			c0.35,0.88,0.88,1.52,1.59,1.94C1178.38,312.83,1179.26,313.03,1180.31,313.03z"/>
		<path class="st2" d="M1197.74,320.31v-21.64h2.17l0.28,2.32h0.22c0.56-0.91,1.27-1.58,2.14-2.03c0.87-0.44,1.85-0.67,2.94-0.67
			c1.36,0,2.52,0.3,3.47,0.9c0.95,0.6,1.68,1.53,2.2,2.8c0.52,1.27,0.77,2.92,0.77,4.94c0,1.9-0.26,3.47-0.79,4.72
			c-0.53,1.25-1.26,2.17-2.21,2.77c-0.95,0.6-2.05,0.9-3.31,0.9c-0.7,0-1.36-0.08-1.98-0.25s-1.18-0.43-1.67-0.79
			c-0.5-0.36-0.93-0.82-1.3-1.38h-0.19v7.4H1197.74z M1204.74,312.94c1.01,0,1.84-0.2,2.48-0.6c0.64-0.4,1.11-1.03,1.42-1.89
			s0.46-1.96,0.46-3.3v-0.65c0-1.42-0.17-2.56-0.5-3.42s-0.81-1.47-1.44-1.84c-0.63-0.37-1.41-0.56-2.34-0.56
			c-1.01,0-1.84,0.22-2.49,0.67c-0.65,0.44-1.12,1.11-1.42,2c-0.3,0.89-0.45,1.97-0.45,3.25v0.46c0,1.14,0.11,2.08,0.33,2.83
			c0.22,0.75,0.53,1.36,0.93,1.81s0.86,0.77,1.38,0.96C1203.62,312.85,1204.16,312.94,1204.74,312.94z"/>
		<path class="st2" d="M1221.99,315.32c-1.65,0-3.04-0.3-4.16-0.91c-1.13-0.61-1.98-1.54-2.57-2.8c-0.59-1.26-0.88-2.86-0.88-4.8
			c0-1.96,0.29-3.57,0.88-4.81c0.59-1.25,1.44-2.18,2.57-2.79c1.12-0.61,2.51-0.91,4.16-0.91c1.65,0,3.04,0.3,4.16,0.91
			c1.12,0.61,1.98,1.54,2.55,2.79c0.58,1.25,0.87,2.85,0.87,4.81c0,1.94-0.29,3.54-0.87,4.8c-0.58,1.26-1.43,2.19-2.55,2.8
			C1225.03,315.02,1223.64,315.32,1221.99,315.32z M1221.99,313.03c1.05,0,1.93-0.21,2.63-0.62c0.7-0.41,1.23-1.06,1.59-1.94
			c0.36-0.88,0.54-1.99,0.54-3.33v-0.68c0-1.36-0.18-2.48-0.54-3.34s-0.89-1.51-1.59-1.92c-0.7-0.41-1.58-0.62-2.63-0.62
			s-1.94,0.21-2.65,0.62c-0.71,0.41-1.24,1.05-1.59,1.92c-0.35,0.87-0.53,1.98-0.53,3.34v0.68c0,1.34,0.18,2.45,0.53,3.33
			c0.35,0.88,0.88,1.52,1.59,1.94C1220.05,312.83,1220.94,313.03,1221.99,313.03z"/>
		<path class="st2" d="M1232.95,314.95v-16.29h2.2l0.25,2.69h0.22c0.17-0.52,0.39-1.01,0.68-1.47c0.29-0.46,0.68-0.85,1.18-1.15
			c0.5-0.3,1.1-0.45,1.83-0.45c0.31,0,0.59,0.03,0.85,0.08c0.26,0.05,0.45,0.11,0.57,0.17v2.51h-1.02c-0.7,0-1.31,0.12-1.81,0.36
			c-0.51,0.24-0.92,0.57-1.25,1.01c-0.33,0.43-0.57,0.95-0.73,1.55c-0.15,0.6-0.23,1.24-0.23,1.92v9.07H1232.95z"/>
		<path class="st2" d="M1249.08,314.95v-22.39h2.73v22.39H1249.08z"/>
		<path class="st2" d="M1260.13,315.32c-0.6,0-1.2-0.07-1.8-0.22c-0.6-0.15-1.16-0.38-1.67-0.71c-0.52-0.33-0.93-0.79-1.24-1.38
			c-0.31-0.59-0.46-1.33-0.46-2.21c0-1.11,0.27-2.03,0.81-2.76c0.54-0.72,1.28-1.28,2.24-1.69c0.96-0.4,2.1-0.68,3.42-0.84
			c1.32-0.15,2.76-0.23,4.3-0.23v-1.86c0-0.6-0.1-1.11-0.31-1.55c-0.21-0.43-0.57-0.77-1.1-1.01c-0.53-0.24-1.27-0.36-2.24-0.36
			c-0.93,0-1.67,0.12-2.21,0.36c-0.55,0.24-0.93,0.54-1.15,0.91c-0.22,0.37-0.33,0.78-0.33,1.24v0.46h-2.63
			c-0.02-0.1-0.03-0.21-0.03-0.31s0-0.23,0-0.37c0-0.99,0.27-1.82,0.82-2.49c0.55-0.67,1.32-1.18,2.31-1.52s2.13-0.51,3.41-0.51
			c1.36,0,2.5,0.2,3.42,0.59c0.92,0.39,1.61,0.95,2.07,1.67s0.7,1.59,0.7,2.6v8.82c0,0.39,0.09,0.67,0.28,0.82
			c0.19,0.16,0.41,0.23,0.68,0.23h1.21v1.8c-0.29,0.12-0.61,0.23-0.96,0.33c-0.35,0.09-0.75,0.14-1.21,0.14
			c-0.54,0-0.98-0.11-1.33-0.33s-0.62-0.52-0.81-0.9c-0.19-0.38-0.31-0.81-0.37-1.28h-0.22c-0.37,0.52-0.84,0.96-1.41,1.35
			s-1.2,0.68-1.9,0.88S1260.96,315.32,1260.13,315.32z M1260.82,313.03c0.66,0,1.29-0.1,1.87-0.31c0.59-0.21,1.11-0.5,1.56-0.88
			c0.45-0.38,0.81-0.84,1.08-1.38c0.27-0.54,0.4-1.12,0.4-1.77v-1.36c-1.67,0-3.1,0.09-4.27,0.28c-1.18,0.19-2.08,0.52-2.71,0.99
			c-0.63,0.48-0.94,1.15-0.94,2.01c0,0.56,0.12,1.01,0.37,1.36c0.25,0.35,0.6,0.61,1.05,0.79
			C1259.69,312.94,1260.22,313.03,1260.82,313.03z"/>
		<path class="st2" d="M1278.62,315.32c-1.11,0-2.1-0.11-2.94-0.34c-0.85-0.23-1.55-0.56-2.11-0.99c-0.56-0.43-0.98-0.95-1.27-1.55
			s-0.43-1.28-0.43-2.04c0-0.1,0-0.2,0-0.29s0.01-0.17,0.03-0.23h2.69c-0.02,0.08-0.03,0.16-0.03,0.22c0,0.06,0,0.12,0,0.19
			c0.02,0.72,0.21,1.29,0.57,1.7c0.36,0.41,0.86,0.7,1.5,0.87c0.64,0.17,1.35,0.25,2.14,0.25c0.68,0,1.31-0.09,1.89-0.26
			c0.58-0.17,1.04-0.44,1.38-0.8c0.34-0.36,0.51-0.82,0.51-1.38c0-0.68-0.22-1.2-0.67-1.56c-0.44-0.36-1.03-0.65-1.75-0.85
			c-0.72-0.21-1.48-0.42-2.26-0.65c-0.66-0.19-1.32-0.39-1.98-0.62s-1.25-0.51-1.78-0.84s-0.95-0.76-1.27-1.29
			c-0.32-0.53-0.48-1.19-0.48-2c0-0.72,0.15-1.36,0.45-1.92c0.3-0.56,0.73-1.03,1.28-1.42c0.56-0.39,1.23-0.69,2.03-0.88
			c0.79-0.2,1.68-0.29,2.65-0.29c1.03,0,1.94,0.11,2.71,0.34c0.77,0.23,1.42,0.55,1.93,0.96c0.52,0.41,0.9,0.88,1.15,1.41
			c0.25,0.53,0.37,1.09,0.37,1.69c0,0.12,0,0.24,0,0.36s-0.01,0.2-0.03,0.26h-2.66V303c0-0.41-0.11-0.81-0.33-1.19
			s-0.59-0.69-1.12-0.93c-0.53-0.24-1.25-0.36-2.18-0.36c-0.6,0-1.11,0.05-1.55,0.14c-0.43,0.09-0.79,0.24-1.08,0.43
			c-0.29,0.2-0.51,0.42-0.65,0.68c-0.15,0.26-0.22,0.55-0.22,0.88c0,0.54,0.17,0.95,0.53,1.24c0.35,0.29,0.82,0.53,1.41,0.71
			s1.22,0.39,1.9,0.62c0.72,0.21,1.46,0.42,2.21,0.63c0.75,0.22,1.44,0.49,2.07,0.82c0.63,0.33,1.13,0.78,1.52,1.35
			c0.38,0.57,0.57,1.32,0.57,2.24c0,0.87-0.17,1.62-0.5,2.26s-0.8,1.17-1.41,1.58c-0.61,0.41-1.32,0.72-2.14,0.91
			C1280.48,315.22,1279.59,315.32,1278.62,315.32z"/>
		<path class="st2" d="M1301.38,315.32c-1.57,0-2.88-0.3-3.95-0.91s-1.87-1.55-2.42-2.82s-0.82-2.86-0.82-4.78s0.27-3.51,0.82-4.77
			c0.55-1.26,1.36-2.2,2.45-2.82s2.42-0.93,4.01-0.93c1.11,0,2.08,0.14,2.89,0.43s1.49,0.71,2.03,1.27s0.93,1.23,1.19,2.01
			c0.26,0.78,0.39,1.68,0.39,2.69h-2.76c0-0.95-0.13-1.73-0.39-2.34c-0.26-0.61-0.67-1.06-1.22-1.36c-0.56-0.3-1.29-0.45-2.2-0.45
			s-1.69,0.2-2.35,0.6c-0.66,0.4-1.17,1.04-1.52,1.9c-0.35,0.87-0.53,2.01-0.53,3.44v0.65c0,1.34,0.17,2.46,0.51,3.34
			c0.34,0.89,0.84,1.54,1.5,1.95c0.66,0.41,1.47,0.62,2.42,0.62c0.93,0,1.68-0.17,2.25-0.5c0.57-0.33,0.98-0.81,1.24-1.42
			s0.39-1.36,0.39-2.23h2.66c0,0.91-0.13,1.75-0.39,2.54c-0.26,0.79-0.66,1.47-1.19,2.04s-1.22,1.03-2.04,1.35
			C1303.52,315.16,1302.53,315.32,1301.38,315.32z"/>
		<path class="st2" d="M1316.3,315.32c-1.57,0-2.83-0.4-3.78-1.21c-0.95-0.8-1.42-2.21-1.42-4.21v-11.24h2.73v10.87
			c0,0.68,0.08,1.24,0.25,1.67c0.17,0.43,0.4,0.77,0.71,1.02c0.31,0.25,0.68,0.42,1.1,0.53s0.88,0.15,1.38,0.15
			c0.78,0,1.51-0.19,2.17-0.56c0.66-0.37,1.2-0.91,1.63-1.63c0.42-0.71,0.63-1.54,0.63-2.49v-9.57h2.72v16.29h-2.2l-0.25-2.45h-0.22
			c-0.43,0.66-0.92,1.2-1.47,1.61s-1.16,0.72-1.83,0.91C1317.78,315.22,1317.06,315.32,1316.3,315.32z"/>
		<path class="st2" d="M1328.66,314.95v-22.39h2.72v22.39H1328.66z"/>
		<path class="st2" d="M1339.43,315.32c-0.85,0-1.51-0.16-1.98-0.48s-0.82-0.74-1.02-1.27s-0.31-1.09-0.31-1.69v-10.93h-2.11v-2.29
			h2.17l0.5-4.55h2.17v4.55h3.07v2.29h-3.07v10.53c0,0.52,0.09,0.9,0.28,1.16c0.19,0.26,0.54,0.39,1.05,0.39h1.73v1.8
			c-0.21,0.1-0.45,0.19-0.74,0.25c-0.29,0.06-0.58,0.12-0.88,0.17C1339.98,315.3,1339.7,315.32,1339.43,315.32z"/>
		<path class="st2" d="M1349.86,315.32c-1.57,0-2.83-0.4-3.78-1.21c-0.95-0.8-1.42-2.21-1.42-4.21v-11.24h2.72v10.87
			c0,0.68,0.08,1.24,0.25,1.67c0.17,0.43,0.4,0.77,0.71,1.02c0.31,0.25,0.68,0.42,1.1,0.53c0.42,0.1,0.88,0.15,1.38,0.15
			c0.78,0,1.51-0.19,2.17-0.56c0.66-0.37,1.2-0.91,1.63-1.63c0.42-0.71,0.63-1.54,0.63-2.49v-9.57h2.72v16.29h-2.2l-0.25-2.45h-0.22
			c-0.43,0.66-0.92,1.2-1.47,1.61s-1.16,0.72-1.83,0.91C1351.34,315.22,1350.63,315.32,1349.86,315.32z"/>
		<path class="st2" d="M1362.22,314.95v-16.29h2.2l0.25,2.69h0.22c0.17-0.52,0.39-1.01,0.68-1.47c0.29-0.46,0.68-0.85,1.18-1.15
			s1.1-0.45,1.83-0.45c0.31,0,0.59,0.03,0.85,0.08c0.26,0.05,0.45,0.11,0.57,0.17v2.51h-1.02c-0.7,0-1.31,0.12-1.81,0.36
			c-0.51,0.24-0.92,0.57-1.25,1.01c-0.33,0.43-0.57,0.95-0.73,1.55c-0.16,0.6-0.23,1.24-0.23,1.92v9.07H1362.22z"/>
		<path class="st2" d="M1376.28,315.32c-0.6,0-1.2-0.07-1.8-0.22c-0.6-0.15-1.16-0.38-1.67-0.71c-0.52-0.33-0.93-0.79-1.24-1.38
			c-0.31-0.59-0.46-1.33-0.46-2.21c0-1.11,0.27-2.03,0.8-2.76c0.54-0.72,1.29-1.28,2.25-1.69c0.96-0.4,2.1-0.68,3.42-0.84
			c1.32-0.15,2.75-0.23,4.3-0.23v-1.86c0-0.6-0.1-1.11-0.31-1.55c-0.21-0.43-0.57-0.77-1.1-1.01c-0.53-0.24-1.27-0.36-2.25-0.36
			c-0.93,0-1.67,0.12-2.21,0.36c-0.55,0.24-0.93,0.54-1.15,0.91c-0.22,0.37-0.33,0.78-0.33,1.24v0.46h-2.63
			c-0.02-0.1-0.03-0.21-0.03-0.31s0-0.23,0-0.37c0-0.99,0.27-1.82,0.82-2.49s1.32-1.18,2.31-1.52s2.13-0.51,3.41-0.51
			c1.36,0,2.5,0.2,3.42,0.59c0.92,0.39,1.61,0.95,2.08,1.67c0.46,0.72,0.7,1.59,0.7,2.6v8.82c0,0.39,0.09,0.67,0.28,0.82
			c0.19,0.16,0.41,0.23,0.68,0.23h1.21v1.8c-0.29,0.12-0.61,0.23-0.96,0.33c-0.35,0.09-0.75,0.14-1.21,0.14
			c-0.54,0-0.98-0.11-1.33-0.33c-0.35-0.22-0.62-0.52-0.81-0.9c-0.19-0.38-0.31-0.81-0.37-1.28h-0.22
			c-0.37,0.52-0.84,0.96-1.41,1.35s-1.2,0.68-1.9,0.88S1377.1,315.32,1376.28,315.32z M1376.96,313.03c0.66,0,1.28-0.1,1.87-0.31
			c0.59-0.21,1.11-0.5,1.56-0.88s0.82-0.84,1.08-1.38c0.27-0.54,0.4-1.12,0.4-1.77v-1.36c-1.67,0-3.1,0.09-4.27,0.28
			c-1.18,0.19-2.08,0.52-2.71,0.99c-0.63,0.48-0.94,1.15-0.94,2.01c0,0.56,0.12,1.01,0.37,1.36c0.25,0.35,0.6,0.61,1.05,0.79
			S1376.36,313.03,1376.96,313.03z"/>
		<path class="st2" d="M1394.76,315.32c-1.12,0-2.1-0.11-2.94-0.34c-0.85-0.23-1.55-0.56-2.11-0.99c-0.56-0.43-0.98-0.95-1.27-1.55
			c-0.29-0.6-0.43-1.28-0.43-2.04c0-0.1,0-0.2,0-0.29s0.01-0.17,0.03-0.23h2.69c-0.02,0.08-0.03,0.16-0.03,0.22
			c0,0.06,0,0.12,0,0.19c0.02,0.72,0.21,1.29,0.57,1.7c0.36,0.41,0.86,0.7,1.5,0.87s1.35,0.25,2.14,0.25c0.68,0,1.31-0.09,1.89-0.26
			c0.58-0.17,1.04-0.44,1.38-0.8s0.51-0.82,0.51-1.38c0-0.68-0.22-1.2-0.67-1.56c-0.44-0.36-1.03-0.65-1.75-0.85
			s-1.48-0.42-2.26-0.65c-0.66-0.19-1.32-0.39-1.98-0.62c-0.66-0.23-1.25-0.51-1.78-0.84s-0.95-0.76-1.27-1.29
			c-0.32-0.53-0.48-1.19-0.48-2c0-0.72,0.15-1.36,0.45-1.92c0.3-0.56,0.73-1.03,1.29-1.42c0.56-0.39,1.23-0.69,2.03-0.88
			s1.68-0.29,2.65-0.29c1.03,0,1.94,0.11,2.71,0.34c0.77,0.23,1.42,0.55,1.93,0.96c0.52,0.41,0.9,0.88,1.15,1.41
			c0.25,0.53,0.37,1.09,0.37,1.69c0,0.12,0,0.24,0,0.36s-0.01,0.2-0.03,0.26h-2.66V303c0-0.41-0.11-0.81-0.33-1.19
			s-0.59-0.69-1.11-0.93c-0.53-0.24-1.25-0.36-2.18-0.36c-0.6,0-1.12,0.05-1.55,0.14c-0.43,0.09-0.79,0.24-1.08,0.43
			c-0.29,0.2-0.51,0.42-0.65,0.68c-0.14,0.26-0.22,0.55-0.22,0.88c0,0.54,0.17,0.95,0.53,1.24c0.35,0.29,0.82,0.53,1.41,0.71
			c0.59,0.19,1.22,0.39,1.9,0.62c0.72,0.21,1.46,0.42,2.21,0.63c0.75,0.22,1.45,0.49,2.08,0.82c0.63,0.33,1.13,0.78,1.52,1.35
			s0.57,1.32,0.57,2.24c0,0.87-0.17,1.62-0.5,2.26c-0.33,0.64-0.8,1.17-1.41,1.58c-0.61,0.41-1.32,0.72-2.14,0.91
			C1396.62,315.22,1395.73,315.32,1394.76,315.32z"/>
		<path class="st2" d="M1416.87,315.32c-1.34,0-2.49-0.3-3.45-0.9s-1.7-1.53-2.23-2.8s-0.79-2.92-0.79-4.94
			c0-1.92,0.27-3.5,0.8-4.74c0.54-1.24,1.28-2.16,2.23-2.76c0.95-0.6,2.05-0.9,3.31-0.9c0.72,0,1.39,0.08,2.01,0.25
			s1.17,0.42,1.66,0.77c0.48,0.35,0.91,0.82,1.28,1.39h0.19v-8.14h2.72v22.39h-2.2l-0.25-2.32h-0.22c-0.56,0.91-1.28,1.58-2.17,2.03
			C1418.89,315.1,1417.92,315.32,1416.87,315.32z M1417.52,312.94c1.03,0,1.87-0.23,2.51-0.68s1.11-1.12,1.41-1.98
			c0.3-0.87,0.45-1.94,0.45-3.22v-0.5c0-1.12-0.11-2.05-0.34-2.82c-0.23-0.76-0.54-1.37-0.93-1.83c-0.39-0.45-0.85-0.77-1.36-0.96
			c-0.52-0.19-1.06-0.28-1.64-0.28c-1.01,0-1.84,0.2-2.48,0.6c-0.64,0.4-1.12,1.03-1.42,1.89s-0.46,1.97-0.46,3.33v0.65
			c0,1.4,0.16,2.53,0.5,3.39c0.33,0.86,0.81,1.47,1.44,1.84C1415.81,312.75,1416.59,312.94,1417.52,312.94z"/>
		<path class="st2" d="M1428.88,295.6v-3.04h2.72v3.04H1428.88z M1428.88,314.95v-16.29h2.72v16.29H1428.88z"/>
		<path class="st2" d="M1438.6,320.59c-0.79,0-1.51-0.16-2.17-0.48c-0.66-0.32-1.19-0.78-1.58-1.38c-0.39-0.6-0.59-1.31-0.59-2.14
			c0-0.91,0.25-1.66,0.76-2.26c0.5-0.6,1.11-1.04,1.81-1.33c-0.52-0.25-0.92-0.59-1.21-1.04c-0.29-0.44-0.43-0.93-0.43-1.47
			c0-0.72,0.26-1.33,0.79-1.83c0.53-0.5,1.17-0.83,1.94-0.99c-0.7-0.45-1.25-1.04-1.66-1.75c-0.4-0.71-0.6-1.5-0.6-2.37
			c0-1.03,0.24-1.94,0.73-2.72c0.48-0.78,1.23-1.4,2.23-1.86s2.22-0.68,3.67-0.68c0.66,0,1.28,0.05,1.86,0.14s1.09,0.24,1.55,0.45
			c0.72-0.33,1.26-0.75,1.63-1.27c0.36-0.52,0.58-1.04,0.67-1.58h2.69c0,0.62-0.14,1.2-0.42,1.75s-0.66,1-1.13,1.36
			c-0.48,0.36-1.05,0.6-1.73,0.73c0.52,0.5,0.9,1.05,1.16,1.67s0.39,1.29,0.39,2.01c0,1.03-0.24,1.95-0.73,2.74
			c-0.48,0.79-1.21,1.42-2.18,1.87c-0.97,0.46-2.19,0.68-3.65,0.68h-2.54c-0.56,0-1.01,0.11-1.36,0.33
			c-0.35,0.22-0.53,0.56-0.53,1.04c0,0.41,0.17,0.75,0.53,1.01c0.35,0.26,0.8,0.39,1.36,0.39h6.63c1.2,0,2.18,0.4,2.94,1.19
			c0.76,0.79,1.15,1.81,1.15,3.05c0,0.89-0.22,1.69-0.67,2.4c-0.44,0.71-1.06,1.28-1.86,1.7c-0.79,0.42-1.72,0.63-2.77,0.63H1438.6z
			 M1439.38,318.51h5.85c0.47,0,0.91-0.1,1.3-0.29c0.39-0.2,0.7-0.47,0.93-0.82c0.23-0.35,0.34-0.73,0.34-1.15
			c0-0.7-0.21-1.26-0.62-1.67c-0.41-0.41-0.93-0.62-1.55-0.62h-6.25c-0.66,0-1.22,0.22-1.67,0.67s-0.68,0.99-0.68,1.63
			c0,0.68,0.23,1.23,0.68,1.64S1438.72,318.51,1439.38,318.51z M1442.32,306.81c1.32,0,2.3-0.29,2.94-0.87
			c0.64-0.58,0.96-1.37,0.96-2.38c0-0.99-0.32-1.78-0.96-2.35c-0.64-0.58-1.62-0.87-2.94-0.87s-2.31,0.29-2.96,0.87
			c-0.65,0.58-0.97,1.36-0.97,2.35c0,0.64,0.14,1.21,0.43,1.7c0.29,0.5,0.72,0.88,1.3,1.15
			C1440.7,306.67,1441.43,306.81,1442.32,306.81z"/>
		<path class="st2" d="M1453.06,295.6v-3.04h2.72v3.04H1453.06z M1453.06,314.95v-16.29h2.72v16.29H1453.06z"/>
		<path class="st2" d="M1463.84,315.32c-0.85,0-1.51-0.16-1.98-0.48s-0.82-0.74-1.02-1.27s-0.31-1.09-0.31-1.69v-10.93h-2.11v-2.29
			h2.17l0.5-4.55h2.17v4.55h3.07v2.29h-3.07v10.53c0,0.52,0.09,0.9,0.28,1.16c0.19,0.26,0.54,0.39,1.05,0.39h1.73v1.8
			c-0.21,0.1-0.45,0.19-0.74,0.25c-0.29,0.06-0.58,0.12-0.88,0.17C1464.39,315.3,1464.11,315.32,1463.84,315.32z"/>
		<path class="st2" d="M1473.31,315.32c-0.6,0-1.2-0.07-1.8-0.22c-0.6-0.15-1.16-0.38-1.67-0.71c-0.52-0.33-0.93-0.79-1.24-1.38
			c-0.31-0.59-0.46-1.33-0.46-2.21c0-1.11,0.27-2.03,0.8-2.76c0.54-0.72,1.29-1.28,2.25-1.69c0.96-0.4,2.1-0.68,3.42-0.84
			c1.32-0.15,2.75-0.23,4.3-0.23v-1.86c0-0.6-0.1-1.11-0.31-1.55c-0.21-0.43-0.57-0.77-1.1-1.01c-0.53-0.24-1.27-0.36-2.25-0.36
			c-0.93,0-1.67,0.12-2.21,0.36c-0.55,0.24-0.93,0.54-1.15,0.91c-0.22,0.37-0.33,0.78-0.33,1.24v0.46h-2.63
			c-0.02-0.1-0.03-0.21-0.03-0.31s0-0.23,0-0.37c0-0.99,0.27-1.82,0.82-2.49s1.32-1.18,2.31-1.52s2.13-0.51,3.41-0.51
			c1.36,0,2.5,0.2,3.42,0.59c0.92,0.39,1.61,0.95,2.08,1.67c0.46,0.72,0.7,1.59,0.7,2.6v8.82c0,0.39,0.09,0.67,0.28,0.82
			c0.19,0.16,0.41,0.23,0.68,0.23h1.21v1.8c-0.29,0.12-0.61,0.23-0.96,0.33c-0.35,0.09-0.75,0.14-1.21,0.14
			c-0.54,0-0.98-0.11-1.33-0.33c-0.35-0.22-0.62-0.52-0.81-0.9c-0.19-0.38-0.31-0.81-0.37-1.28h-0.22
			c-0.37,0.52-0.84,0.96-1.41,1.35s-1.2,0.68-1.9,0.88S1474.14,315.32,1473.31,315.32z M1473.99,313.03c0.66,0,1.28-0.1,1.87-0.31
			c0.59-0.21,1.11-0.5,1.56-0.88s0.82-0.84,1.08-1.38c0.27-0.54,0.4-1.12,0.4-1.77v-1.36c-1.67,0-3.1,0.09-4.27,0.28
			c-1.18,0.19-2.08,0.52-2.71,0.99c-0.63,0.48-0.94,1.15-0.94,2.01c0,0.56,0.12,1.01,0.37,1.36c0.25,0.35,0.6,0.61,1.05,0.79
			S1473.39,313.03,1473.99,313.03z"/>
		<path class="st2" d="M1486.1,314.95v-22.39h2.72v22.39H1486.1z"/>
		<path class="st2" d="M1499.57,315.32c-1.61,0-2.97-0.3-4.07-0.91c-1.1-0.61-1.94-1.54-2.51-2.8c-0.57-1.26-0.85-2.86-0.85-4.8
			c0-1.96,0.28-3.57,0.85-4.81c0.57-1.25,1.41-2.18,2.52-2.79c1.11-0.61,2.51-0.91,4.18-0.91c1.53,0,2.81,0.29,3.84,0.88
			c1.03,0.59,1.81,1.47,2.34,2.63s0.79,2.63,0.79,4.38v1.3h-11.7c0.04,1.3,0.23,2.37,0.57,3.2c0.34,0.84,0.85,1.45,1.53,1.83
			c0.68,0.38,1.54,0.57,2.57,0.57c0.7,0,1.32-0.09,1.84-0.26c0.53-0.17,0.97-0.43,1.33-0.76c0.36-0.33,0.63-0.72,0.82-1.18
			c0.19-0.45,0.29-0.95,0.31-1.49h2.66c-0.02,0.87-0.19,1.67-0.5,2.4s-0.76,1.36-1.36,1.87c-0.6,0.52-1.33,0.92-2.2,1.21
			C1501.67,315.18,1500.68,315.32,1499.57,315.32z M1495.02,305.45h8.83c0-0.91-0.1-1.67-0.31-2.29c-0.21-0.62-0.5-1.12-0.88-1.52
			c-0.38-0.39-0.83-0.68-1.33-0.85c-0.51-0.17-1.08-0.26-1.72-0.26c-0.95,0-1.75,0.18-2.42,0.53c-0.66,0.35-1.17,0.89-1.52,1.61
			C1495.32,303.38,1495.1,304.31,1495.02,305.45z"/>
		<path class="st2" d="M1515.73,315.32c-1.12,0-2.1-0.11-2.94-0.34c-0.85-0.23-1.55-0.56-2.11-0.99c-0.56-0.43-0.98-0.95-1.27-1.55
			c-0.29-0.6-0.43-1.28-0.43-2.04c0-0.1,0-0.2,0-0.29s0.01-0.17,0.03-0.23h2.69c-0.02,0.08-0.03,0.16-0.03,0.22
			c0,0.06,0,0.12,0,0.19c0.02,0.72,0.21,1.29,0.57,1.7c0.36,0.41,0.86,0.7,1.5,0.87s1.35,0.25,2.14,0.25c0.68,0,1.31-0.09,1.89-0.26
			c0.58-0.17,1.04-0.44,1.38-0.8s0.51-0.82,0.51-1.38c0-0.68-0.22-1.2-0.67-1.56c-0.44-0.36-1.03-0.65-1.75-0.85
			s-1.48-0.42-2.26-0.65c-0.66-0.19-1.32-0.39-1.98-0.62c-0.66-0.23-1.25-0.51-1.78-0.84s-0.95-0.76-1.27-1.29
			c-0.32-0.53-0.48-1.19-0.48-2c0-0.72,0.15-1.36,0.45-1.92c0.3-0.56,0.73-1.03,1.29-1.42c0.56-0.39,1.23-0.69,2.03-0.88
			s1.68-0.29,2.65-0.29c1.03,0,1.94,0.11,2.71,0.34c0.77,0.23,1.42,0.55,1.93,0.96c0.52,0.41,0.9,0.88,1.15,1.41
			c0.25,0.53,0.37,1.09,0.37,1.69c0,0.12,0,0.24,0,0.36s-0.01,0.2-0.03,0.26h-2.66V303c0-0.41-0.11-0.81-0.33-1.19
			s-0.59-0.69-1.11-0.93c-0.53-0.24-1.25-0.36-2.18-0.36c-0.6,0-1.12,0.05-1.55,0.14c-0.43,0.09-0.79,0.24-1.08,0.43
			c-0.29,0.2-0.51,0.42-0.65,0.68c-0.14,0.26-0.22,0.55-0.22,0.88c0,0.54,0.17,0.95,0.53,1.24c0.35,0.29,0.82,0.53,1.41,0.71
			c0.59,0.19,1.22,0.39,1.9,0.62c0.72,0.21,1.46,0.42,2.21,0.63c0.75,0.22,1.45,0.49,2.08,0.82c0.63,0.33,1.13,0.78,1.52,1.35
			s0.57,1.32,0.57,2.24c0,0.87-0.17,1.62-0.5,2.26c-0.33,0.64-0.8,1.17-1.41,1.58c-0.61,0.41-1.32,0.72-2.14,0.91
			C1517.59,315.22,1516.7,315.32,1515.73,315.32z"/>
	</g>
	<g class="st6">
		<path class="st2" d="M1026.89,349.49c-1.34,0-2.49-0.3-3.45-0.9s-1.7-1.53-2.23-2.8s-0.79-2.92-0.79-4.94
			c0-1.92,0.27-3.5,0.81-4.74c0.54-1.24,1.28-2.16,2.23-2.76c0.95-0.6,2.05-0.9,3.31-0.9c0.72,0,1.39,0.08,2.01,0.25
			c0.62,0.17,1.17,0.42,1.66,0.77c0.48,0.35,0.91,0.82,1.29,1.39h0.19v-8.14h2.72v22.39h-2.2l-0.25-2.32h-0.22
			c-0.56,0.91-1.28,1.58-2.17,2.03C1028.92,349.27,1027.95,349.49,1026.89,349.49z M1027.54,347.11c1.03,0,1.87-0.23,2.51-0.68
			s1.11-1.12,1.41-1.98c0.3-0.87,0.45-1.94,0.45-3.22v-0.5c0-1.12-0.11-2.05-0.34-2.82c-0.23-0.76-0.54-1.37-0.93-1.83
			s-0.85-0.77-1.36-0.96c-0.52-0.19-1.06-0.28-1.64-0.28c-1.01,0-1.84,0.2-2.48,0.6c-0.64,0.4-1.11,1.03-1.42,1.89
			s-0.46,1.97-0.46,3.33v0.65c0,1.4,0.17,2.53,0.5,3.39c0.33,0.86,0.81,1.47,1.44,1.84
			C1025.83,346.92,1026.61,347.11,1027.54,347.11z"/>
		<path class="st2" d="M1045.41,349.49c-1.61,0-2.97-0.3-4.07-0.91c-1.1-0.61-1.94-1.54-2.51-2.8c-0.57-1.26-0.85-2.86-0.85-4.8
			c0-1.96,0.28-3.57,0.85-4.81c0.57-1.25,1.41-2.18,2.52-2.79c1.11-0.61,2.51-0.91,4.18-0.91c1.53,0,2.81,0.29,3.84,0.88
			c1.03,0.59,1.81,1.47,2.34,2.63s0.79,2.63,0.79,4.38v1.3h-11.7c0.04,1.3,0.23,2.37,0.57,3.2c0.34,0.84,0.85,1.45,1.53,1.83
			s1.54,0.57,2.57,0.57c0.7,0,1.32-0.09,1.84-0.26c0.53-0.17,0.97-0.43,1.33-0.76c0.36-0.33,0.63-0.72,0.82-1.18
			c0.19-0.45,0.29-0.95,0.31-1.49h2.66c-0.02,0.87-0.19,1.67-0.5,2.4s-0.76,1.36-1.36,1.87c-0.6,0.52-1.33,0.92-2.2,1.21
			C1047.51,349.35,1046.52,349.49,1045.41,349.49z M1040.86,339.62h8.82c0-0.91-0.1-1.67-0.31-2.29c-0.21-0.62-0.5-1.12-0.88-1.52
			c-0.38-0.39-0.83-0.68-1.33-0.85c-0.51-0.17-1.08-0.26-1.72-0.26c-0.95,0-1.75,0.18-2.42,0.53c-0.66,0.35-1.17,0.89-1.52,1.61
			C1041.16,337.55,1040.94,338.48,1040.86,339.62z"/>
		<path class="st2" d="M1062.35,349.12v-22.39h2.73v22.39H1062.35z"/>
		<path class="st2" d="M1076,349.49c-1.65,0-3.04-0.3-4.16-0.91c-1.13-0.61-1.98-1.54-2.57-2.8c-0.59-1.26-0.88-2.86-0.88-4.8
			c0-1.96,0.29-3.57,0.88-4.81c0.59-1.25,1.44-2.18,2.57-2.79c1.12-0.61,2.51-0.91,4.16-0.91c1.65,0,3.04,0.3,4.16,0.91
			c1.12,0.61,1.98,1.54,2.55,2.79c0.58,1.25,0.87,2.85,0.87,4.81c0,1.94-0.29,3.54-0.87,4.8c-0.58,1.26-1.43,2.19-2.55,2.8
			C1079.04,349.19,1077.65,349.49,1076,349.49z M1076,347.2c1.05,0,1.93-0.21,2.63-0.62c0.7-0.41,1.23-1.06,1.59-1.94
			c0.36-0.88,0.54-1.99,0.54-3.33v-0.68c0-1.36-0.18-2.48-0.54-3.34s-0.89-1.51-1.59-1.92c-0.7-0.41-1.58-0.62-2.63-0.62
			s-1.94,0.21-2.65,0.62c-0.71,0.41-1.24,1.05-1.59,1.92c-0.35,0.87-0.53,1.98-0.53,3.34v0.68c0,1.34,0.18,2.45,0.53,3.33
			c0.35,0.88,0.88,1.52,1.59,1.94C1074.06,347,1074.95,347.2,1076,347.2z"/>
		<path class="st2" d="M1092.66,349.49c-1.11,0-2.1-0.11-2.94-0.34c-0.85-0.23-1.55-0.56-2.11-0.99c-0.56-0.43-0.98-0.95-1.27-1.55
			s-0.43-1.28-0.43-2.04c0-0.1,0-0.2,0-0.29s0.01-0.17,0.03-0.23h2.69c-0.02,0.08-0.03,0.16-0.03,0.22c0,0.06,0,0.12,0,0.19
			c0.02,0.72,0.21,1.29,0.57,1.7c0.36,0.41,0.86,0.7,1.5,0.87c0.64,0.17,1.35,0.25,2.14,0.25c0.68,0,1.31-0.09,1.89-0.26
			c0.58-0.17,1.04-0.44,1.38-0.8c0.34-0.36,0.51-0.82,0.51-1.38c0-0.68-0.22-1.2-0.67-1.56s-1.03-0.65-1.75-0.85
			c-0.72-0.21-1.48-0.42-2.26-0.65c-0.66-0.19-1.32-0.39-1.98-0.62s-1.25-0.51-1.78-0.84s-0.95-0.76-1.27-1.29
			c-0.32-0.53-0.48-1.19-0.48-2c0-0.72,0.15-1.36,0.45-1.92c0.3-0.56,0.73-1.03,1.28-1.42c0.56-0.39,1.23-0.69,2.03-0.88
			c0.79-0.2,1.68-0.29,2.65-0.29c1.03,0,1.94,0.11,2.71,0.34c0.77,0.23,1.42,0.55,1.94,0.96c0.52,0.41,0.9,0.88,1.15,1.41
			c0.25,0.53,0.37,1.09,0.37,1.69c0,0.12,0,0.24,0,0.36s-0.01,0.2-0.03,0.26h-2.66v-0.34c0-0.41-0.11-0.81-0.33-1.19
			s-0.59-0.69-1.11-0.93c-0.53-0.24-1.25-0.36-2.18-0.36c-0.6,0-1.11,0.05-1.55,0.14c-0.43,0.09-0.79,0.24-1.08,0.43
			c-0.29,0.2-0.51,0.42-0.65,0.68c-0.15,0.26-0.22,0.55-0.22,0.88c0,0.54,0.17,0.95,0.53,1.24c0.35,0.29,0.82,0.53,1.41,0.71
			s1.22,0.39,1.9,0.62c0.72,0.21,1.46,0.42,2.21,0.63c0.75,0.22,1.44,0.49,2.07,0.82c0.63,0.33,1.13,0.78,1.52,1.35
			c0.38,0.57,0.57,1.32,0.57,2.24c0,0.87-0.17,1.62-0.5,2.26s-0.8,1.17-1.41,1.58s-1.32,0.72-2.14,0.91
			C1094.52,349.39,1093.63,349.49,1092.66,349.49z"/>
		<path class="st2" d="M1109.22,354.48v-21.64h2.17l0.28,2.32h0.22c0.56-0.91,1.27-1.58,2.14-2.03c0.87-0.44,1.85-0.67,2.94-0.67
			c1.36,0,2.52,0.3,3.47,0.9c0.95,0.6,1.68,1.53,2.2,2.8c0.52,1.27,0.77,2.92,0.77,4.94c0,1.9-0.26,3.47-0.79,4.72
			c-0.53,1.25-1.26,2.17-2.21,2.77c-0.95,0.6-2.05,0.9-3.31,0.9c-0.7,0-1.36-0.08-1.98-0.25s-1.18-0.43-1.67-0.79
			c-0.5-0.36-0.93-0.82-1.3-1.38h-0.19v7.4H1109.22z M1116.22,347.11c1.01,0,1.84-0.2,2.48-0.6c0.64-0.4,1.11-1.03,1.42-1.89
			s0.46-1.96,0.46-3.3v-0.65c0-1.42-0.17-2.56-0.5-3.42s-0.81-1.47-1.44-1.84c-0.63-0.37-1.41-0.56-2.34-0.56
			c-1.01,0-1.84,0.22-2.49,0.67c-0.65,0.44-1.12,1.11-1.42,2c-0.3,0.89-0.45,1.97-0.45,3.25v0.46c0,1.14,0.11,2.08,0.33,2.83
			c0.22,0.75,0.53,1.36,0.93,1.81s0.86,0.77,1.38,0.96C1115.1,347.02,1115.64,347.11,1116.22,347.11z"/>
		<path class="st2" d="M1130.87,349.49c-0.6,0-1.2-0.07-1.8-0.22c-0.6-0.15-1.16-0.38-1.67-0.71c-0.52-0.33-0.93-0.79-1.24-1.38
			c-0.31-0.59-0.46-1.33-0.46-2.21c0-1.11,0.27-2.03,0.81-2.76c0.54-0.72,1.28-1.28,2.24-1.69c0.96-0.4,2.1-0.68,3.42-0.84
			c1.32-0.15,2.76-0.23,4.3-0.23v-1.86c0-0.6-0.1-1.11-0.31-1.55c-0.21-0.43-0.57-0.77-1.1-1.01c-0.53-0.24-1.27-0.36-2.24-0.36
			c-0.93,0-1.67,0.12-2.21,0.36c-0.55,0.24-0.93,0.54-1.15,0.91c-0.22,0.37-0.33,0.78-0.33,1.24v0.46h-2.63
			c-0.02-0.1-0.03-0.21-0.03-0.31s0-0.23,0-0.37c0-0.99,0.27-1.82,0.82-2.49c0.55-0.67,1.32-1.18,2.31-1.52s2.13-0.51,3.41-0.51
			c1.36,0,2.5,0.2,3.42,0.59c0.92,0.39,1.61,0.95,2.07,1.67s0.7,1.59,0.7,2.6v8.82c0,0.39,0.09,0.67,0.28,0.82
			c0.19,0.16,0.41,0.23,0.68,0.23h1.21v1.8c-0.29,0.12-0.61,0.23-0.96,0.33c-0.35,0.09-0.75,0.14-1.21,0.14
			c-0.54,0-0.98-0.11-1.33-0.33s-0.62-0.52-0.81-0.9c-0.19-0.38-0.31-0.81-0.37-1.28h-0.22c-0.37,0.52-0.84,0.96-1.41,1.35
			s-1.2,0.68-1.9,0.88S1131.69,349.49,1130.87,349.49z M1131.55,347.2c0.66,0,1.29-0.1,1.87-0.31c0.59-0.21,1.11-0.5,1.56-0.88
			c0.45-0.38,0.81-0.84,1.08-1.38c0.27-0.54,0.4-1.12,0.4-1.77v-1.36c-1.67,0-3.1,0.09-4.27,0.28c-1.18,0.19-2.08,0.52-2.71,0.99
			c-0.63,0.48-0.94,1.15-0.94,2.01c0,0.56,0.12,1.01,0.37,1.36c0.25,0.35,0.6,0.61,1.05,0.79
			C1130.42,347.11,1130.95,347.2,1131.55,347.2z"/>
		<path class="st2" d="M1143.38,330.82l2.69-4.09h3.07l0.03,0.09l-3.41,4H1143.38z M1143.65,349.12v-16.29h2.73v16.29H1143.65z"/>
		<path class="st2" d="M1156.32,349.49c-1.11,0-2.1-0.11-2.94-0.34c-0.85-0.23-1.55-0.56-2.11-0.99c-0.56-0.43-0.98-0.95-1.27-1.55
			s-0.43-1.28-0.43-2.04c0-0.1,0-0.2,0-0.29s0.01-0.17,0.03-0.23h2.69c-0.02,0.08-0.03,0.16-0.03,0.22c0,0.06,0,0.12,0,0.19
			c0.02,0.72,0.21,1.29,0.57,1.7c0.36,0.41,0.86,0.7,1.5,0.87c0.64,0.17,1.35,0.25,2.14,0.25c0.68,0,1.31-0.09,1.89-0.26
			c0.58-0.17,1.04-0.44,1.38-0.8c0.34-0.36,0.51-0.82,0.51-1.38c0-0.68-0.22-1.2-0.67-1.56s-1.03-0.65-1.75-0.85
			c-0.72-0.21-1.48-0.42-2.26-0.65c-0.66-0.19-1.32-0.39-1.98-0.62s-1.25-0.51-1.78-0.84s-0.95-0.76-1.27-1.29
			c-0.32-0.53-0.48-1.19-0.48-2c0-0.72,0.15-1.36,0.45-1.92c0.3-0.56,0.73-1.03,1.28-1.42c0.56-0.39,1.23-0.69,2.03-0.88
			c0.79-0.2,1.68-0.29,2.65-0.29c1.03,0,1.94,0.11,2.71,0.34c0.77,0.23,1.42,0.55,1.94,0.96c0.52,0.41,0.9,0.88,1.15,1.41
			c0.25,0.53,0.37,1.09,0.37,1.69c0,0.12,0,0.24,0,0.36s-0.01,0.2-0.03,0.26h-2.66v-0.34c0-0.41-0.11-0.81-0.33-1.19
			s-0.59-0.69-1.11-0.93c-0.53-0.24-1.25-0.36-2.18-0.36c-0.6,0-1.11,0.05-1.55,0.14c-0.43,0.09-0.79,0.24-1.08,0.43
			c-0.29,0.2-0.51,0.42-0.65,0.68c-0.15,0.26-0.22,0.55-0.22,0.88c0,0.54,0.17,0.95,0.53,1.24c0.35,0.29,0.82,0.53,1.41,0.71
			s1.22,0.39,1.9,0.62c0.72,0.21,1.46,0.42,2.21,0.63c0.75,0.22,1.44,0.49,2.07,0.82c0.63,0.33,1.13,0.78,1.52,1.35
			c0.38,0.57,0.57,1.32,0.57,2.24c0,0.87-0.17,1.62-0.5,2.26s-0.8,1.17-1.41,1.58s-1.32,0.72-2.14,0.91
			C1158.18,349.39,1157.29,349.49,1156.32,349.49z"/>
		<path class="st2" d="M1172.91,349.49c-1.61,0-2.97-0.3-4.07-0.91c-1.1-0.61-1.94-1.54-2.51-2.8c-0.57-1.26-0.85-2.86-0.85-4.8
			c0-1.96,0.28-3.57,0.85-4.81c0.57-1.25,1.41-2.18,2.52-2.79c1.11-0.61,2.51-0.91,4.18-0.91c1.53,0,2.81,0.29,3.84,0.88
			c1.03,0.59,1.81,1.47,2.34,2.63s0.79,2.63,0.79,4.38v1.3h-11.7c0.04,1.3,0.23,2.37,0.57,3.2c0.34,0.84,0.85,1.45,1.53,1.83
			s1.54,0.57,2.57,0.57c0.7,0,1.32-0.09,1.84-0.26c0.53-0.17,0.97-0.43,1.33-0.76c0.36-0.33,0.63-0.72,0.82-1.18
			c0.19-0.45,0.29-0.95,0.31-1.49h2.66c-0.02,0.87-0.19,1.67-0.5,2.4s-0.76,1.36-1.36,1.87c-0.6,0.52-1.33,0.92-2.2,1.21
			C1175.02,349.35,1174.03,349.49,1172.91,349.49z M1168.36,339.62h8.82c0-0.91-0.1-1.67-0.31-2.29c-0.21-0.62-0.5-1.12-0.88-1.52
			c-0.38-0.39-0.83-0.68-1.33-0.85c-0.51-0.17-1.08-0.26-1.72-0.26c-0.95,0-1.75,0.18-2.42,0.53c-0.66,0.35-1.17,0.89-1.52,1.61
			C1168.66,337.55,1168.44,338.48,1168.36,339.62z"/>
		<path class="st2" d="M1189.08,349.49c-1.11,0-2.1-0.11-2.94-0.34c-0.85-0.23-1.55-0.56-2.11-0.99c-0.56-0.43-0.98-0.95-1.27-1.55
			s-0.43-1.28-0.43-2.04c0-0.1,0-0.2,0-0.29s0.01-0.17,0.03-0.23h2.69c-0.02,0.08-0.03,0.16-0.03,0.22c0,0.06,0,0.12,0,0.19
			c0.02,0.72,0.21,1.29,0.57,1.7c0.36,0.41,0.86,0.7,1.5,0.87c0.64,0.17,1.35,0.25,2.14,0.25c0.68,0,1.31-0.09,1.89-0.26
			c0.58-0.17,1.04-0.44,1.38-0.8c0.34-0.36,0.51-0.82,0.51-1.38c0-0.68-0.22-1.2-0.67-1.56s-1.03-0.65-1.75-0.85
			c-0.72-0.21-1.48-0.42-2.26-0.65c-0.66-0.19-1.32-0.39-1.98-0.62s-1.25-0.51-1.78-0.84s-0.95-0.76-1.27-1.29
			c-0.32-0.53-0.48-1.19-0.48-2c0-0.72,0.15-1.36,0.45-1.92c0.3-0.56,0.73-1.03,1.28-1.42c0.56-0.39,1.23-0.69,2.03-0.88
			c0.79-0.2,1.68-0.29,2.65-0.29c1.03,0,1.94,0.11,2.71,0.34c0.77,0.23,1.42,0.55,1.94,0.96c0.52,0.41,0.9,0.88,1.15,1.41
			c0.25,0.53,0.37,1.09,0.37,1.69c0,0.12,0,0.24,0,0.36s-0.01,0.2-0.03,0.26h-2.66v-0.34c0-0.41-0.11-0.81-0.33-1.19
			s-0.59-0.69-1.11-0.93c-0.53-0.24-1.25-0.36-2.18-0.36c-0.6,0-1.11,0.05-1.55,0.14c-0.43,0.09-0.79,0.24-1.08,0.43
			c-0.29,0.2-0.51,0.42-0.65,0.68c-0.15,0.26-0.22,0.55-0.22,0.88c0,0.54,0.17,0.95,0.53,1.24c0.35,0.29,0.82,0.53,1.41,0.71
			s1.22,0.39,1.9,0.62c0.72,0.21,1.46,0.42,2.21,0.63c0.75,0.22,1.44,0.49,2.07,0.82c0.63,0.33,1.13,0.78,1.52,1.35
			c0.38,0.57,0.57,1.32,0.57,2.24c0,0.87-0.17,1.62-0.5,2.26s-0.8,1.17-1.41,1.58s-1.32,0.72-2.14,0.91
			C1190.94,349.39,1190.05,349.49,1189.08,349.49z"/>
		<path class="st2" d="M1205.64,354.48v-21.64h2.17l0.28,2.32h0.22c0.56-0.91,1.27-1.58,2.14-2.03c0.87-0.44,1.85-0.67,2.94-0.67
			c1.36,0,2.52,0.3,3.47,0.9c0.95,0.6,1.68,1.53,2.2,2.8c0.52,1.27,0.77,2.92,0.77,4.94c0,1.9-0.26,3.47-0.79,4.72
			c-0.53,1.25-1.26,2.17-2.21,2.77c-0.95,0.6-2.05,0.9-3.31,0.9c-0.7,0-1.36-0.08-1.98-0.25s-1.18-0.43-1.67-0.79
			c-0.5-0.36-0.93-0.82-1.3-1.38h-0.19v7.4H1205.64z M1212.64,347.11c1.01,0,1.84-0.2,2.48-0.6c0.64-0.4,1.11-1.03,1.42-1.89
			s0.46-1.96,0.46-3.3v-0.65c0-1.42-0.17-2.56-0.5-3.42s-0.81-1.47-1.44-1.84c-0.63-0.37-1.41-0.56-2.34-0.56
			c-1.01,0-1.84,0.22-2.49,0.67c-0.65,0.44-1.12,1.11-1.42,2c-0.3,0.89-0.45,1.97-0.45,3.25v0.46c0,1.14,0.11,2.08,0.33,2.83
			c0.22,0.75,0.53,1.36,0.93,1.81s0.86,0.77,1.38,0.96C1211.51,347.02,1212.06,347.11,1212.64,347.11z"/>
		<path class="st2" d="M1227.28,349.49c-0.6,0-1.2-0.07-1.8-0.22c-0.6-0.15-1.16-0.38-1.67-0.71c-0.52-0.33-0.93-0.79-1.24-1.38
			c-0.31-0.59-0.46-1.33-0.46-2.21c0-1.11,0.27-2.03,0.81-2.76c0.54-0.72,1.28-1.28,2.24-1.69c0.96-0.4,2.1-0.68,3.42-0.84
			c1.32-0.15,2.76-0.23,4.3-0.23v-1.86c0-0.6-0.1-1.11-0.31-1.55c-0.21-0.43-0.57-0.77-1.1-1.01c-0.53-0.24-1.27-0.36-2.24-0.36
			c-0.93,0-1.67,0.12-2.21,0.36c-0.55,0.24-0.93,0.54-1.15,0.91c-0.22,0.37-0.33,0.78-0.33,1.24v0.46h-2.63
			c-0.02-0.1-0.03-0.21-0.03-0.31s0-0.23,0-0.37c0-0.99,0.27-1.82,0.82-2.49c0.55-0.67,1.32-1.18,2.31-1.52s2.13-0.51,3.41-0.51
			c1.36,0,2.5,0.2,3.42,0.59c0.92,0.39,1.61,0.95,2.07,1.67s0.7,1.59,0.7,2.6v8.82c0,0.39,0.09,0.67,0.28,0.82
			c0.19,0.16,0.41,0.23,0.68,0.23h1.21v1.8c-0.29,0.12-0.61,0.23-0.96,0.33c-0.35,0.09-0.75,0.14-1.21,0.14
			c-0.54,0-0.98-0.11-1.33-0.33s-0.62-0.52-0.81-0.9c-0.19-0.38-0.31-0.81-0.37-1.28h-0.22c-0.37,0.52-0.84,0.96-1.41,1.35
			s-1.2,0.68-1.9,0.88S1228.11,349.49,1227.28,349.49z M1227.96,347.2c0.66,0,1.29-0.1,1.87-0.31c0.59-0.21,1.11-0.5,1.56-0.88
			c0.45-0.38,0.81-0.84,1.08-1.38c0.27-0.54,0.4-1.12,0.4-1.77v-1.36c-1.67,0-3.1,0.09-4.27,0.28c-1.18,0.19-2.08,0.52-2.71,0.99
			c-0.63,0.48-0.94,1.15-0.94,2.01c0,0.56,0.12,1.01,0.37,1.36c0.25,0.35,0.6,0.61,1.05,0.79
			C1226.84,347.11,1227.37,347.2,1227.96,347.2z"/>
		<path class="st2" d="M1240.07,349.12v-16.29h2.2l0.25,2.69h0.22c0.17-0.52,0.39-1.01,0.68-1.47c0.29-0.46,0.68-0.85,1.18-1.15
			c0.5-0.3,1.1-0.45,1.83-0.45c0.31,0,0.59,0.03,0.85,0.08c0.26,0.05,0.45,0.11,0.57,0.17v2.51h-1.02c-0.7,0-1.31,0.12-1.81,0.36
			c-0.51,0.24-0.92,0.57-1.25,1.01c-0.33,0.43-0.57,0.95-0.73,1.55c-0.15,0.6-0.23,1.24-0.23,1.92v9.07H1240.07z"/>
		<path class="st2" d="M1254.16,349.49c-0.85,0-1.51-0.16-1.98-0.48c-0.48-0.32-0.82-0.74-1.02-1.27c-0.21-0.53-0.31-1.09-0.31-1.69
			v-10.93h-2.11v-2.29h2.17l0.5-4.55h2.17v4.55h3.07v2.29h-3.07v10.53c0,0.52,0.09,0.9,0.28,1.16c0.19,0.26,0.54,0.39,1.05,0.39
			h1.73v1.8c-0.21,0.1-0.45,0.19-0.74,0.25c-0.29,0.06-0.58,0.12-0.88,0.17C1254.71,349.47,1254.43,349.49,1254.16,349.49z"/>
		<path class="st2" d="M1259.55,329.77v-3.04h2.73v3.04H1259.55z M1259.55,349.12v-16.29h2.73v16.29H1259.55z"/>
		<path class="st2" d="M1272.71,349.49c-1.57,0-2.88-0.3-3.95-0.91c-1.06-0.61-1.87-1.55-2.42-2.82c-0.55-1.27-0.82-2.86-0.82-4.78
			s0.27-3.51,0.82-4.77c0.55-1.26,1.36-2.2,2.45-2.82c1.08-0.62,2.42-0.93,4.01-0.93c1.11,0,2.08,0.14,2.9,0.43s1.49,0.71,2.03,1.27
			c0.54,0.56,0.93,1.23,1.19,2.01c0.26,0.78,0.39,1.68,0.39,2.69h-2.76c0-0.95-0.13-1.73-0.39-2.34c-0.26-0.61-0.67-1.06-1.22-1.36
			c-0.56-0.3-1.29-0.45-2.2-0.45s-1.69,0.2-2.35,0.6s-1.17,1.04-1.52,1.9c-0.35,0.87-0.53,2.01-0.53,3.44v0.65
			c0,1.34,0.17,2.46,0.51,3.34c0.34,0.89,0.84,1.54,1.5,1.95c0.66,0.41,1.47,0.62,2.42,0.62c0.93,0,1.68-0.17,2.24-0.5
			c0.57-0.33,0.98-0.81,1.24-1.42c0.26-0.62,0.39-1.36,0.39-2.23h2.66c0,0.91-0.13,1.75-0.39,2.54c-0.26,0.79-0.66,1.47-1.19,2.04
			c-0.54,0.58-1.22,1.03-2.04,1.35C1274.85,349.33,1273.86,349.49,1272.71,349.49z"/>
		<path class="st2" d="M1282.58,329.77v-3.04h2.73v3.04H1282.58z M1282.58,349.12v-16.29h2.73v16.29H1282.58z"/>
		<path class="st2" d="M1289.55,354.48v-21.64h2.17l0.28,2.32h0.22c0.56-0.91,1.27-1.58,2.14-2.03c0.87-0.44,1.85-0.67,2.94-0.67
			c1.36,0,2.52,0.3,3.47,0.9c0.95,0.6,1.68,1.53,2.2,2.8c0.52,1.27,0.77,2.92,0.77,4.94c0,1.9-0.26,3.47-0.79,4.72
			c-0.53,1.25-1.26,2.17-2.21,2.77c-0.95,0.6-2.05,0.9-3.31,0.9c-0.7,0-1.36-0.08-1.98-0.25s-1.18-0.43-1.67-0.79
			c-0.5-0.36-0.93-0.82-1.3-1.38h-0.19v7.4H1289.55z M1296.55,347.11c1.01,0,1.84-0.2,2.48-0.6s1.12-1.03,1.42-1.89
			s0.46-1.96,0.46-3.3v-0.65c0-1.42-0.17-2.56-0.5-3.42s-0.81-1.47-1.44-1.84c-0.63-0.37-1.41-0.56-2.34-0.56
			c-1.01,0-1.84,0.22-2.49,0.67c-0.65,0.44-1.12,1.11-1.42,2c-0.3,0.89-0.45,1.97-0.45,3.25v0.46c0,1.14,0.11,2.08,0.33,2.83
			c0.22,0.75,0.53,1.36,0.93,1.81s0.86,0.77,1.38,0.96C1295.42,347.02,1295.97,347.11,1296.55,347.11z"/>
		<path class="st2" d="M1311.19,349.49c-0.6,0-1.2-0.07-1.8-0.22c-0.6-0.15-1.16-0.38-1.67-0.71c-0.52-0.33-0.93-0.79-1.24-1.38
			c-0.31-0.59-0.46-1.33-0.46-2.21c0-1.11,0.27-2.03,0.81-2.76c0.54-0.72,1.28-1.28,2.24-1.69c0.96-0.4,2.1-0.68,3.42-0.84
			c1.32-0.15,2.76-0.23,4.3-0.23v-1.86c0-0.6-0.1-1.11-0.31-1.55c-0.21-0.43-0.57-0.77-1.1-1.01c-0.53-0.24-1.27-0.36-2.24-0.36
			c-0.93,0-1.67,0.12-2.21,0.36c-0.55,0.24-0.93,0.54-1.15,0.91c-0.22,0.37-0.33,0.78-0.33,1.24v0.46h-2.63
			c-0.02-0.1-0.03-0.21-0.03-0.31s0-0.23,0-0.37c0-0.99,0.27-1.82,0.82-2.49s1.32-1.18,2.31-1.52c0.99-0.34,2.13-0.51,3.41-0.51
			c1.36,0,2.5,0.2,3.42,0.59c0.92,0.39,1.61,0.95,2.07,1.67c0.46,0.72,0.7,1.59,0.7,2.6v8.82c0,0.39,0.09,0.67,0.28,0.82
			c0.19,0.16,0.41,0.23,0.68,0.23h1.21v1.8c-0.29,0.12-0.61,0.23-0.96,0.33c-0.35,0.09-0.75,0.14-1.21,0.14
			c-0.54,0-0.98-0.11-1.33-0.33c-0.35-0.22-0.62-0.52-0.81-0.9c-0.19-0.38-0.31-0.81-0.37-1.28h-0.22
			c-0.37,0.52-0.84,0.96-1.41,1.35c-0.57,0.38-1.2,0.68-1.9,0.88C1312.78,349.39,1312.02,349.49,1311.19,349.49z M1311.87,347.2
			c0.66,0,1.29-0.1,1.87-0.31c0.59-0.21,1.11-0.5,1.56-0.88s0.82-0.84,1.08-1.38c0.27-0.54,0.4-1.12,0.4-1.77v-1.36
			c-1.67,0-3.1,0.09-4.27,0.28c-1.18,0.19-2.08,0.52-2.71,0.99c-0.63,0.48-0.94,1.15-0.94,2.01c0,0.56,0.12,1.01,0.37,1.36
			c0.25,0.35,0.6,0.61,1.05,0.79C1310.75,347.11,1311.27,347.2,1311.87,347.2z"/>
		<path class="st2" d="M1323.98,349.12v-16.29h2.2l0.25,2.45h0.22c0.43-0.66,0.92-1.2,1.47-1.61c0.55-0.41,1.16-0.72,1.83-0.91
			c0.67-0.2,1.39-0.29,2.15-0.29c1.03,0,1.93,0.18,2.71,0.53c0.77,0.35,1.38,0.92,1.83,1.7c0.44,0.78,0.67,1.85,0.67,3.19v11.24
			h-2.72v-10.87c0-0.68-0.09-1.24-0.26-1.67c-0.18-0.43-0.41-0.77-0.71-1.02c-0.3-0.25-0.66-0.42-1.08-0.53
			c-0.42-0.1-0.89-0.16-1.41-0.16c-0.76,0-1.49,0.19-2.17,0.56c-0.68,0.37-1.22,0.91-1.63,1.61c-0.4,0.7-0.6,1.54-0.6,2.51v9.57
			H1323.98z"/>
		<path class="st2" d="M1345.22,349.49c-0.85,0-1.51-0.16-1.98-0.48s-0.82-0.74-1.02-1.27s-0.31-1.09-0.31-1.69v-10.93h-2.11v-2.29
			h2.17l0.5-4.55h2.17v4.55h3.07v2.29h-3.07v10.53c0,0.52,0.09,0.9,0.28,1.16c0.19,0.26,0.54,0.39,1.05,0.39h1.73v1.8
			c-0.21,0.1-0.45,0.19-0.74,0.25c-0.29,0.06-0.58,0.12-0.88,0.17C1345.77,349.47,1345.49,349.49,1345.22,349.49z"/>
		<path class="st2" d="M1357.11,349.49c-1.61,0-2.97-0.3-4.07-0.91c-1.1-0.61-1.94-1.54-2.51-2.8c-0.57-1.26-0.85-2.86-0.85-4.8
			c0-1.96,0.28-3.57,0.85-4.81c0.57-1.25,1.41-2.18,2.52-2.79c1.11-0.61,2.51-0.91,4.18-0.91c1.53,0,2.81,0.29,3.84,0.88
			c1.03,0.59,1.81,1.47,2.34,2.63s0.79,2.63,0.79,4.38v1.3h-11.7c0.04,1.3,0.23,2.37,0.57,3.2c0.34,0.84,0.85,1.45,1.53,1.83
			c0.68,0.38,1.54,0.57,2.57,0.57c0.7,0,1.32-0.09,1.84-0.26c0.53-0.17,0.97-0.43,1.33-0.76c0.36-0.33,0.63-0.72,0.82-1.18
			c0.19-0.45,0.29-0.95,0.31-1.49h2.66c-0.02,0.87-0.19,1.67-0.5,2.4s-0.76,1.36-1.36,1.87c-0.6,0.52-1.33,0.92-2.2,1.21
			C1359.21,349.35,1358.22,349.49,1357.11,349.49z M1352.56,339.62h8.83c0-0.91-0.1-1.67-0.31-2.29c-0.21-0.62-0.5-1.12-0.88-1.52
			c-0.38-0.39-0.83-0.68-1.33-0.85c-0.51-0.17-1.08-0.26-1.72-0.26c-0.95,0-1.75,0.18-2.42,0.53c-0.66,0.35-1.17,0.89-1.52,1.61
			C1352.86,337.55,1352.64,338.48,1352.56,339.62z"/>
		<path class="st2" d="M1373.27,349.49c-1.12,0-2.1-0.11-2.94-0.34c-0.85-0.23-1.55-0.56-2.11-0.99c-0.56-0.43-0.98-0.95-1.27-1.55
			c-0.29-0.6-0.43-1.28-0.43-2.04c0-0.1,0-0.2,0-0.29s0.01-0.17,0.03-0.23h2.69c-0.02,0.08-0.03,0.16-0.03,0.22
			c0,0.06,0,0.12,0,0.19c0.02,0.72,0.21,1.29,0.57,1.7c0.36,0.41,0.86,0.7,1.5,0.87s1.35,0.25,2.14,0.25c0.68,0,1.31-0.09,1.89-0.26
			c0.58-0.17,1.04-0.44,1.38-0.8s0.51-0.82,0.51-1.38c0-0.68-0.22-1.2-0.67-1.56c-0.44-0.36-1.03-0.65-1.75-0.85
			s-1.48-0.42-2.26-0.65c-0.66-0.19-1.32-0.39-1.98-0.62c-0.66-0.23-1.25-0.51-1.78-0.84s-0.95-0.76-1.27-1.29
			c-0.32-0.53-0.48-1.19-0.48-2c0-0.72,0.15-1.36,0.45-1.92c0.3-0.56,0.73-1.03,1.29-1.42c0.56-0.39,1.23-0.69,2.03-0.88
			s1.68-0.29,2.65-0.29c1.03,0,1.94,0.11,2.71,0.34c0.77,0.23,1.42,0.55,1.93,0.96c0.52,0.41,0.9,0.88,1.15,1.41
			c0.25,0.53,0.37,1.09,0.37,1.69c0,0.12,0,0.24,0,0.36s-0.01,0.2-0.03,0.26h-2.66v-0.34c0-0.41-0.11-0.81-0.33-1.19
			s-0.59-0.69-1.11-0.93c-0.53-0.24-1.25-0.36-2.18-0.36c-0.6,0-1.12,0.05-1.55,0.14c-0.43,0.09-0.79,0.24-1.08,0.43
			c-0.29,0.2-0.51,0.42-0.65,0.68c-0.14,0.26-0.22,0.55-0.22,0.88c0,0.54,0.17,0.95,0.53,1.24c0.35,0.29,0.82,0.53,1.41,0.71
			c0.59,0.19,1.22,0.39,1.9,0.62c0.72,0.21,1.46,0.42,2.21,0.63c0.75,0.22,1.45,0.49,2.08,0.82c0.63,0.33,1.13,0.78,1.52,1.35
			s0.57,1.32,0.57,2.24c0,0.87-0.17,1.62-0.5,2.26c-0.33,0.64-0.8,1.17-1.41,1.58c-0.61,0.41-1.32,0.72-2.14,0.91
			C1375.13,349.39,1374.24,349.49,1373.27,349.49z"/>
	</g>
</g>
</svg>
